<svg width="88" height="88" viewBox="0 0 88 88" fill="none" xmlns="http://www.w3.org/2000/svg">
<mask id="path-1-inside-1" fill="white">
<path d="M88 44C88 68.3005 68.3005 88 44 88C19.6995 88 0 68.3005 0 44C0 19.6995 19.6995 0 44 0C68.3005 0 88 19.6995 88 44ZM2.2 44C2.2 67.0855 20.9145 85.8 44 85.8C67.0855 85.8 85.8 67.0855 85.8 44C85.8 20.9145 67.0855 2.2 44 2.2C20.9145 2.2 2.2 20.9145 2.2 44Z"/>
</mask>
<path d="M88 44C88 68.3005 68.3005 88 44 88C19.6995 88 0 68.3005 0 44C0 19.6995 19.6995 0 44 0C68.3005 0 88 19.6995 88 44ZM2.2 44C2.2 67.0855 20.9145 85.8 44 85.8C67.0855 85.8 85.8 67.0855 85.8 44C85.8 20.9145 67.0855 2.2 44 2.2C20.9145 2.2 2.2 20.9145 2.2 44Z" stroke="url(#paint0_linear)" stroke-width="10" mask="url(#path-1-inside-1)"/>
<path d="M54.2857 41.4286H46.5714V33.7143C46.5714 32.7677 45.8038 32 44.8571 32H43.1429C42.1962 32 41.4286 32.7677 41.4286 33.7143V41.4286H33.7143C32.7677 41.4286 32 42.1962 32 43.1429V44.8571C32 45.8038 32.7677 46.5714 33.7143 46.5714H41.4286V54.2857C41.4286 55.2323 42.1962 56 43.1429 56H44.8571C45.8038 56 46.5714 55.2323 46.5714 54.2857V46.5714H54.2857C55.2323 46.5714 56 45.8038 56 44.8571V43.1429C56 42.1962 55.2323 41.4286 54.2857 41.4286Z" fill="#59CD99"/>
<defs>
<linearGradient id="paint0_linear" x1="44" y1="0" x2="44" y2="146" gradientUnits="userSpaceOnUse">
<stop stop-color="#59CD99"/>
<stop offset="1" stop-color="#5458F7" stop-opacity="0"/>
</linearGradient>
</defs>
</svg>
