<svg width="88" height="88" viewBox="0 0 88 88" fill="none" xmlns="http://www.w3.org/2000/svg">
<path fill-rule="evenodd" clip-rule="evenodd" d="M31.0909 33H49.6365C51.3435 33 52.7274 34.3839 52.7274 36.0909V38.2267L62.0002 33.5903V54.0461L52.7274 49.4097V51.5455C52.7274 53.2526 51.3435 54.6365 49.6365 54.6365H31.0909C29.3839 54.6365 28 53.2526 28 51.5455V36.0909C28 34.3839 29.3839 33 31.0909 33ZM52.7274 45.954L58.9093 49.0449V38.5915L52.7274 41.6825V45.954ZM31.0909 36.0909V51.5455H49.6364V36.0909H31.0909Z" fill="#59CD99"/>
<mask id="path-2-inside-1" fill="white">
<path d="M88 44C88 68.3005 68.3005 88 44 88C19.6995 88 0 68.3005 0 44C0 19.6995 19.6995 0 44 0C68.3005 0 88 19.6995 88 44ZM2.2 44C2.2 67.0855 20.9145 85.8 44 85.8C67.0855 85.8 85.8 67.0855 85.8 44C85.8 20.9145 67.0855 2.2 44 2.2C20.9145 2.2 2.2 20.9145 2.2 44Z"/>
</mask>
<path d="M88 44C88 68.3005 68.3005 88 44 88C19.6995 88 0 68.3005 0 44C0 19.6995 19.6995 0 44 0C68.3005 0 88 19.6995 88 44ZM2.2 44C2.2 67.0855 20.9145 85.8 44 85.8C67.0855 85.8 85.8 67.0855 85.8 44C85.8 20.9145 67.0855 2.2 44 2.2C20.9145 2.2 2.2 20.9145 2.2 44Z" stroke="url(#paint0_linear)" stroke-width="10" mask="url(#path-2-inside-1)"/>
<defs>
<linearGradient id="paint0_linear" x1="44" y1="0" x2="44" y2="146" gradientUnits="userSpaceOnUse">
<stop stop-color="#59CD99"/>
<stop offset="1" stop-color="#5458F7" stop-opacity="0"/>
</linearGradient>
</defs>
</svg>
