<svg width="136" height="160" viewBox="0 0 136 160" fill="none" xmlns="http://www.w3.org/2000/svg">
<rect width="136" height="160" rx="12" fill="#27282B"/>
<g filter="url(#filter0_d)">
<g clip-path="url(#clip0)">
<path d="M18.5123 60.307C16.1029 62.2783 20.0455 79.5819 20.0455 79.5819C20.0455 79.5819 20.9216 105.975 22.7834 107.18C24.6452 108.385 28.8068 107.071 30.4496 106.851C32.0923 106.632 30.6686 90.3145 28.2592 84.2911C25.8499 78.2677 27.7117 69.5064 27.7117 69.5064L40.7441 72.0253C40.7441 72.0253 32.8589 78.7058 33.1875 80.1295C33.516 81.5532 41.9488 86.3719 43.482 86.591C45.0153 86.81 47.9722 77.8296 50.6006 71.6967C53.229 65.5638 32.6399 61.6212 32.6399 61.6212L29.7925 56.2549C29.7925 56.2549 20.9216 58.3357 18.5123 60.307Z" fill="#F24A57"/>
<path d="M25.0524 107.635C25.0524 107.635 24.2577 110.416 25.0524 110.416C25.8471 110.416 27.3041 111.211 29.5558 110.946C31.8075 110.681 31.1452 107.9 29.5558 107.502C27.9664 107.105 28.3637 103.926 28.3637 103.926C27.8339 102.866 25.3173 104.191 25.3173 104.191L25.0524 107.635Z" fill="#2F2E41"/>
<path d="M36.3356 85.5159C36.3356 85.5159 34.9722 88.0673 35.749 88.2349C36.5259 88.4025 37.7825 89.4866 40.0394 89.7025C42.2963 89.9184 42.2355 87.0598 40.7656 86.3362C39.2958 85.6126 40.3546 82.589 40.3546 82.589C40.0601 81.4415 37.3208 82.2055 37.3208 82.2055L36.3356 85.5159Z" fill="#2F2E41"/>
<path d="M19.9902 36.5969C20.2093 37.035 19.2236 42.5108 19.2236 42.5108L20.0998 44.044C20.0998 44.044 25.1375 42.0727 24.3709 41.7442C23.6043 41.4156 23.7138 37.3635 23.7138 37.3635C23.7138 37.3635 19.7712 36.1588 19.9902 36.5969Z" fill="#FFB9B9"/>
<path d="M21.8867 38.2847C25.5953 38.2847 28.6016 35.2784 28.6016 31.5699C28.6016 27.8613 25.5953 24.855 21.8867 24.855C18.1782 24.855 15.1719 27.8613 15.1719 31.5699C15.1719 35.2784 18.1782 38.2847 21.8867 38.2847Z" fill="#915766"/>
<path d="M21.4231 28.0623C22.9577 28.0623 24.2017 26.8182 24.2017 25.2837C24.2017 23.7491 22.9577 22.5051 21.4231 22.5051C19.8885 22.5051 18.6445 23.7491 18.6445 25.2837C18.6445 26.8182 19.8885 28.0623 21.4231 28.0623Z" fill="#915766"/>
<path d="M22.6387 26.5421C22.7348 26.5521 22.8314 26.5571 22.9281 26.5571C23.293 26.5571 23.6543 26.4853 23.9914 26.3456C24.3285 26.206 24.6348 26.0013 24.8929 25.7433C25.1509 25.4853 25.3555 25.179 25.4952 24.8419C25.6348 24.5048 25.7067 24.1435 25.7067 23.7786C25.7067 23.4137 25.6348 23.0524 25.4952 22.7153C25.3555 22.3781 25.1509 22.0718 24.8929 21.8138C24.6348 21.5558 24.3285 21.3511 23.9914 21.2115C23.6543 21.0719 23.293 21 22.9281 21C22.8314 21 22.7348 21.005 22.6387 21.015C23.3218 21.0866 23.9541 21.4086 24.4138 21.9189C24.8734 22.4293 25.1278 23.0918 25.1278 23.7786C25.1278 24.4654 24.8734 25.1279 24.4138 25.6382C23.9541 26.1485 23.3218 26.4706 22.6387 26.5421Z" fill="#915766"/>
<path d="M22.0714 39.4443C24.6117 39.4443 26.6711 37.3849 26.6711 34.8446C26.6711 32.3042 24.6117 30.2449 22.0714 30.2449C19.531 30.2449 17.4717 32.3042 17.4717 34.8446C17.4717 37.3849 19.531 39.4443 22.0714 39.4443Z" fill="#FFB9B9"/>
<path d="M15.4464 41.9085C14.0226 42.2371 11.6133 45.7416 11.6133 45.7416L15.4464 49.5747C15.4464 49.5747 18.1843 59.8692 18.5128 60.3073C20.6653 63.1772 30.3406 56.8028 30.3406 56.8028C30.3406 56.8028 29.9573 53.6816 30.1763 52.1483C30.387 50.6737 29.355 47.7129 29.355 47.7129C29.355 47.7129 32.969 46.1797 32.2024 44.6464C31.4358 43.1132 26.7266 39.6087 24.7553 40.8134C22.784 42.0181 18.8414 40.8134 18.8414 40.8134C18.8414 40.8134 16.8701 41.58 15.4464 41.9085Z" fill="#59CD99"/>
<path d="M43.4268 63.9759C43.4268 63.9759 49.6692 69.3422 51.2024 68.2471C52.7356 67.1519 45.2885 63.3188 45.2885 63.3188L43.4268 63.9759Z" fill="#FFB9B9"/>
<path d="M15.3905 62.1142C16.2667 63.0999 20.4283 60.581 19.8948 59.4624C19.3612 58.3438 16.0476 60.581 16.0476 60.581C16.0476 60.581 14.5144 61.1286 15.3905 62.1142Z" fill="#FFB9B9"/>
<path d="M15.4456 47.2745L10.8459 55.8168C10.8459 55.8168 16.1026 60.1975 16.7597 60.307C17.4168 60.4165 15.4455 63.2639 15.4455 63.2639C15.4455 63.2639 9.53166 59.1023 7.23181 57.0215C4.93196 54.9407 11.6125 45.7413 11.6125 45.7413L13.5838 44.5366L15.4456 47.2745Z" fill="#59CD99"/>
<path d="M28.8066 46.9461L34.1729 55.2693C34.1729 55.2693 42.3867 64.4687 43.4818 64.9067C44.577 65.3448 45.8912 63.264 45.8912 63.264L36.0347 51.3267L32.3112 44.6462L30.8875 44.0986L28.8066 46.9461Z" fill="#59CD99"/>
<path d="M21.8868 32.1582C24.4444 32.1582 26.5177 30.9142 26.5177 29.3796C26.5177 27.8451 24.4444 26.6011 21.8868 26.6011C19.3292 26.6011 17.2559 27.8451 17.2559 29.3796C17.2559 30.9142 19.3292 32.1582 21.8868 32.1582Z" fill="#915766"/>
<path d="M34.8781 89.3301C34.7264 89.3303 34.5809 89.3906 34.4735 89.498C34.3662 89.6053 34.3058 89.7508 34.3057 89.9026V109.428C34.3058 109.58 34.3662 109.725 34.4735 109.833C34.5809 109.94 34.7264 110 34.8781 110.001H101.457C101.608 110 101.754 109.94 101.861 109.833C101.969 109.725 102.029 109.58 102.029 109.428V89.9026C102.029 89.7508 101.969 89.6053 101.861 89.4979C101.754 89.3906 101.608 89.3303 101.457 89.3301L34.8781 89.3301Z" fill="#E6E6E6"/>
<path d="M35.7402 108.566H100.594V90.7646H35.7402V108.566Z" fill="white"/>
<path d="M92.4084 99.873C92.2838 99.8729 92.1603 99.8973 92.0452 99.9449C91.93 99.9925 91.8253 100.062 91.7371 100.15C91.649 100.238 91.579 100.343 91.5313 100.458C91.4836 100.573 91.459 100.697 91.459 100.821C91.459 100.946 91.4836 101.069 91.5313 101.185C91.579 101.3 91.649 101.404 91.7371 101.492C91.8253 101.58 91.93 101.65 92.0452 101.698C92.1603 101.745 92.2838 101.77 92.4084 101.77H96.2016C96.4531 101.77 96.6943 101.67 96.8721 101.492C97.0499 101.314 97.1499 101.073 97.1499 100.821C97.1499 100.57 97.0499 100.329 96.8721 100.151C96.6943 99.973 96.4531 99.873 96.2016 99.873H92.4084Z" fill="#59CD99"/>
<path d="M97.1488 98.0337H53.3613V98.2832H97.1488V98.0337Z" fill="#E6E6E6"/>
<path d="M44.2088 105.189C47.2593 105.189 49.7321 102.716 49.7321 99.6654C49.7321 96.615 47.2593 94.1421 44.2088 94.1421C41.1584 94.1421 38.6855 96.615 38.6855 99.6654C38.6855 102.716 41.1584 105.189 44.2088 105.189Z" fill="#22215B"/>
<path d="M54.1732 100.003C54.0667 100.003 53.9611 100.024 53.8626 100.065C53.7641 100.106 53.6746 100.165 53.5992 100.241C53.5238 100.316 53.464 100.405 53.4232 100.504C53.3823 100.602 53.3613 100.708 53.3613 100.814C53.3613 100.921 53.3823 101.026 53.4232 101.125C53.464 101.223 53.5238 101.313 53.5992 101.388C53.6746 101.463 53.7641 101.523 53.8626 101.564C53.9611 101.604 54.0667 101.625 54.1732 101.625H62.6563C62.8712 101.625 63.0771 101.539 63.229 101.387C63.3808 101.235 63.4661 101.029 63.4661 100.814C63.4661 100.599 63.3808 100.393 63.229 100.241C63.0771 100.089 62.8712 100.004 62.6563 100.003H54.1732Z" fill="#E6E6E6"/>
<path d="M46.3179 97.1946H47.1809L45.3851 98.9718C45.0714 99.281 44.6486 99.4543 44.2081 99.4543C43.7676 99.4543 43.3449 99.281 43.0311 98.9718L41.2356 97.1946H42.0986L43.4628 98.5447C43.6615 98.7405 43.9293 98.8503 44.2083 98.8503C44.4872 98.8503 44.755 98.7405 44.9537 98.5447L46.3179 97.1946ZM42.0877 102.137H41.2246L43.0314 100.348C43.3451 100.039 43.7679 99.8658 44.2084 99.8658C44.6489 99.8658 45.0717 100.039 45.3854 100.348L47.1922 102.137H46.3291L44.9537 100.775C44.755 100.58 44.4873 100.47 44.2083 100.47C43.9293 100.47 43.6615 100.58 43.4628 100.775L42.0877 102.137Z" fill="white"/>
<path d="M43.5471 26.7883C43.3953 26.7885 43.2498 26.8489 43.1425 26.9562C43.0352 27.0635 42.9748 27.209 42.9746 27.3608V46.8863C42.9748 47.0381 43.0352 47.1836 43.1425 47.2909C43.2498 47.3982 43.3953 47.4586 43.5471 47.4588H110.126C110.277 47.4586 110.423 47.3982 110.53 47.2909C110.637 47.1836 110.698 47.0381 110.698 46.8863V27.3608C110.698 27.209 110.637 27.0635 110.53 26.9562C110.423 26.8489 110.277 26.7885 110.126 26.7883L43.5471 26.7883Z" fill="#E6E6E6"/>
<path d="M44.4102 46.0241H109.264V28.2229H44.4102V46.0241Z" fill="white"/>
<path d="M101.077 37.3311C100.826 37.3311 100.584 37.431 100.407 37.6088C100.229 37.7866 100.129 38.0278 100.129 38.2793C100.129 38.5308 100.229 38.772 100.407 38.9499C100.584 39.1277 100.826 39.2276 101.077 39.2276H104.87C105.122 39.2276 105.363 39.1277 105.541 38.9499C105.719 38.772 105.819 38.5308 105.819 38.2793C105.819 38.0278 105.719 37.7866 105.541 37.6088C105.363 37.431 105.122 37.3311 104.87 37.3311H101.077Z" fill="#59CD99"/>
<path d="M105.819 35.4917H62.0312V35.7412H105.819V35.4917Z" fill="#E6E6E6"/>
<path d="M52.8788 42.6467C55.9292 42.6467 58.4021 40.1738 58.4021 37.1234C58.4021 34.073 55.9292 31.6001 52.8788 31.6001C49.8283 31.6001 47.3555 34.073 47.3555 37.1234C47.3555 40.1738 49.8283 42.6467 52.8788 42.6467Z" fill="#22215B"/>
<path d="M62.843 37.4617C62.6282 37.4619 62.4222 37.5475 62.2703 37.6995C62.1185 37.8516 62.0332 38.0577 62.0332 38.2726C62.0332 38.4874 62.1185 38.6935 62.2703 38.8456C62.4222 38.9976 62.6282 39.0832 62.843 39.0834H71.3261C71.5411 39.0834 71.7474 38.998 71.8994 38.8459C72.0515 38.6939 72.1369 38.4876 72.1369 38.2726C72.1369 38.0575 72.0515 37.8512 71.8994 37.6992C71.7474 37.5471 71.5411 37.4617 71.3261 37.4617H62.843Z" fill="#E6E6E6"/>
<path d="M55.1011 36.4789C55.2044 35.7877 54.6781 35.4162 53.9585 35.1683L54.1919 34.232L53.6219 34.09L53.3946 35.0016C53.2449 34.9643 53.0911 34.929 52.9381 34.8941L53.167 33.9765L52.5974 33.8345L52.3638 34.7704C52.2398 34.7422 52.1181 34.7143 51.9999 34.6849L52.0006 34.682L51.2146 34.4857L51.063 35.0944C51.063 35.0944 51.4858 35.1913 51.4769 35.1974C51.5558 35.2068 51.6278 35.2468 51.6774 35.3088C51.7271 35.3708 51.7504 35.4498 51.7425 35.5288L51.4766 36.5955C51.4967 36.6005 51.5165 36.6068 51.5358 36.6144L51.4758 36.5995L51.1029 38.0937C51.0947 38.1198 51.0814 38.144 51.0639 38.1649C51.0463 38.1859 51.0247 38.2031 51.0005 38.2157C50.9762 38.2283 50.9497 38.2359 50.9224 38.2382C50.8952 38.2405 50.8678 38.2374 50.8417 38.2291C50.8474 38.2374 50.4275 38.1257 50.4275 38.1257L50.1445 38.7782L50.8864 38.9631C51.0243 38.9977 51.1596 39.0339 51.2925 39.068L51.0566 40.0152L51.6259 40.1572L51.8597 39.2202C52.015 39.2625 52.166 39.3014 52.3137 39.3381L52.0809 40.2707L52.6508 40.4127L52.8867 39.4675C53.8585 39.6514 54.5895 39.5772 54.8968 38.6984C55.1446 37.9906 54.8846 37.5824 54.3733 37.316C54.7456 37.2298 55.0261 36.9849 55.101 36.4789L55.1011 36.4789ZM53.7988 38.3049C53.6225 39.0126 52.431 38.6302 52.0445 38.5341L52.3575 37.2795C52.7438 37.3759 53.9825 37.5668 53.799 38.3049H53.7988ZM53.9749 36.4687C53.8142 37.1125 52.8224 36.7854 52.5005 36.7052L52.7843 35.5673C53.1061 35.6475 54.1424 35.7971 53.9749 36.4687Z" fill="white"/>
<path d="M58.7404 58.0593C58.5887 58.0595 58.4432 58.1199 58.3358 58.2272C58.2285 58.3345 58.1681 58.48 58.168 58.6318V78.1573C58.1681 78.3091 58.2285 78.4546 58.3358 78.5619C58.4432 78.6692 58.5887 78.7296 58.7404 78.7298H125.319C125.471 78.7296 125.616 78.6692 125.724 78.5619C125.831 78.4546 125.891 78.3091 125.891 78.1573V58.6318C125.891 58.48 125.831 58.3345 125.724 58.2272C125.616 58.1199 125.471 58.0595 125.319 58.0593L58.7404 58.0593Z" fill="#E6E6E6"/>
<path d="M59.6035 77.2951H124.458V59.4939H59.6035V77.2951Z" fill="white"/>
<path d="M116.271 68.6021C116.019 68.6021 115.778 68.702 115.6 68.8798C115.422 69.0576 115.322 69.2988 115.322 69.5503C115.322 69.8018 115.422 70.043 115.6 70.2209C115.778 70.3987 116.019 70.4986 116.271 70.4986H120.064C120.315 70.4986 120.556 70.3987 120.734 70.2209C120.912 70.043 121.012 69.8018 121.012 69.5503C121.012 69.2988 120.912 69.0576 120.734 68.8798C120.556 68.702 120.315 68.6021 120.064 68.6021H116.271Z" fill="#59CD99"/>
<path d="M121.012 66.7627H77.2246V67.0122H121.012V66.7627Z" fill="#E6E6E6"/>
<path d="M68.0721 73.9177C71.1226 73.9177 73.5954 71.4448 73.5954 68.3944C73.5954 65.344 71.1226 62.8711 68.0721 62.8711C65.0217 62.8711 62.5488 65.344 62.5488 68.3944C62.5488 71.4448 65.0217 73.9177 68.0721 73.9177Z" fill="#22215B"/>
<path d="M78.0355 68.7324C77.8204 68.7324 77.6142 68.8179 77.4621 68.9699C77.31 69.122 77.2246 69.3282 77.2246 69.5433C77.2246 69.7584 77.31 69.9646 77.4621 70.1167C77.6142 70.2687 77.8204 70.3542 78.0355 70.3542H86.5185C86.7336 70.3542 86.9398 70.2687 87.0919 70.1167C87.244 69.9646 87.3294 69.7584 87.3294 69.5433C87.3294 69.3282 87.244 69.122 87.0919 68.9699C86.9398 68.8179 86.7336 68.7324 86.5185 68.7324H78.0355Z" fill="#E6E6E6"/>
<path d="M68.0715 72.0346L70.3074 68.8857L68.0715 70.2059L65.8369 68.8857L68.0714 72.0346H68.0715Z" fill="white"/>
<path d="M68.0714 69.783H68.0715L70.3061 68.4621L68.0715 64.7544H68.0714L65.8369 68.4621L68.0714 69.783Z" fill="white"/>
</g>
</g>
<defs>
<filter id="filter0_d" x="-1.25" y="21" width="138.142" height="98" filterUnits="userSpaceOnUse" color-interpolation-filters="sRGB">
<feFlood flood-opacity="0" result="BackgroundImageFix"/>
<feColorMatrix in="SourceAlpha" type="matrix" values="0 0 0 0 0 0 0 0 0 0 0 0 0 0 0 0 0 0 127 0"/>
<feOffset dy="4"/>
<feGaussianBlur stdDeviation="2"/>
<feColorMatrix type="matrix" values="0 0 0 0 0 0 0 0 0 0 0 0 0 0 0 0 0 0 0.25 0"/>
<feBlend mode="normal" in2="BackgroundImageFix" result="effect1_dropShadow"/>
<feBlend mode="normal" in="SourceGraphic" in2="effect1_dropShadow" result="shape"/>
</filter>
<clipPath id="clip0">
<rect x="2.75" y="21" width="130.142" height="90" fill="white"/>
</clipPath>
</defs>
</svg>
