<svg width="170" height="56" viewBox="0 0 170 56" fill="none" xmlns="http://www.w3.org/2000/svg">
<path d="M24.5096 24.6601C19.7653 25.4842 15.0754 26.2984 10.387 27.1197C9.87958 27.2085 9.38365 27.3547 9.12708 26.7069C8.58815 25.3094 7.56618 25.0872 6.28335 25.5602C5.53945 25.8325 5.39181 25.5602 5.42335 24.8435C5.47638 23.2998 5.42335 21.7533 5.45058 20.2081C5.52798 16.7423 8.01195 15.1657 11.0406 16.8111C15.547 19.2664 19.966 21.8823 24.4193 24.4336C24.4466 24.4494 24.4537 24.5311 24.5096 24.6601Z" fill="#F24A57"/>
<path d="M25.1823 26.1938C24.3682 28.5545 23.5942 30.7805 22.8345 33.0165C22.7881 33.1977 22.6862 33.3598 22.543 33.48C22.3998 33.6003 22.2226 33.6728 22.0361 33.6873C19.5507 34.0987 17.0696 34.5473 14.5828 34.9773C14.3162 35.0232 14.084 35.1206 13.8819 34.7465C12.9244 33.0036 11.6474 31.4728 10.5337 29.8316C9.85855 28.8283 9.83992 28.8283 10.978 28.6348C15.4786 27.8465 19.9798 27.0624 24.4814 26.2827C24.6663 26.2497 24.8498 26.2354 25.1823 26.1938Z" fill="#F24A57"/>
<path d="M26.2025 42.6699C26.1107 43.0569 25.8986 43.3378 25.4858 43.2791C25.1189 43.2246 24.8537 42.9809 24.9125 42.5624C24.9171 42.4833 24.9377 42.4059 24.9729 42.3349C25.0082 42.2639 25.0574 42.2008 25.1176 42.1493C25.1778 42.0978 25.2478 42.0589 25.3234 42.0351C25.399 42.0113 25.4786 42.0029 25.5575 42.0106C25.9617 42.0163 26.1738 42.27 26.2025 42.6699Z" fill="#F24A57"/>
<path d="M35.9091 31.0327C33.1614 29.4274 30.3807 27.8794 27.6388 26.264C27.0282 25.9042 26.8805 26.0977 26.6913 26.6639C25.9446 28.9056 25.1147 31.1216 24.398 33.3733C24.0253 34.5458 23.3087 35.1292 22.1161 35.3098C20.0579 35.6194 18.0197 36.078 15.9528 36.3131C14.7431 36.4564 14.1482 36.9481 13.8874 38.1406C13.7111 38.949 13.8988 39.0006 14.584 38.8745C18.1558 38.2366 21.732 37.6275 25.3053 37.0111C26.8332 36.746 26.8089 36.7503 27.0683 38.2596C27.1557 38.7598 27.107 38.9762 26.5509 39.0751C22.4128 39.7703 18.2848 40.5242 14.1439 41.2008C12.1545 41.5304 10.8817 39.9466 11.5181 38.0116C11.756 37.2949 12.0126 36.5783 12.3136 35.8874C12.3915 35.736 12.4228 35.5649 12.4034 35.3957C12.384 35.2265 12.3148 35.0669 12.2046 34.9371C10.6136 32.7025 9.01259 30.4723 7.47462 28.2004C6.95862 27.4393 6.37669 27.855 5.80192 27.9209C5.17556 27.994 5.44646 28.5057 5.44646 28.8182C5.42926 33.6791 5.42544 38.5395 5.43499 43.3995C5.43499 45.3245 5.38482 47.2523 5.45936 49.1744C5.58406 52.3277 7.88312 53.731 10.7627 52.4711C11.106 52.3143 11.441 52.1397 11.766 51.9479C15.6207 49.7377 19.4735 47.5251 23.3244 45.3101C23.6942 45.098 24.0612 44.8801 24.4568 44.6537C23.3531 43.6274 23.0793 42.7301 23.5108 41.7411C23.7032 41.3045 24.0307 40.9412 24.4451 40.7046C24.8595 40.468 25.3388 40.3706 25.8127 40.4268C26.8719 40.54 27.5255 41.2409 27.8609 42.7072C30.6043 41.1305 33.2933 39.6184 35.9535 38.0532C39.4423 35.9992 39.4165 33.0852 35.9091 31.0327ZM14.5653 46.7721C14.1259 46.7738 13.6959 46.6453 13.3296 46.4027C12.9632 46.1602 12.6769 45.8145 12.5069 45.4094C12.3369 45.0042 12.2907 44.5578 12.3742 44.1264C12.4578 43.695 12.6673 43.2981 12.9762 42.9857C13.2852 42.6733 13.6798 42.4595 14.1103 42.3713C14.5407 42.283 14.9876 42.3243 15.3946 42.4899C15.8016 42.6555 16.1504 42.9379 16.3969 43.3016C16.6435 43.6653 16.7767 44.0939 16.7798 44.5333C16.7787 45.1225 16.5458 45.6877 16.1315 46.1066C15.7171 46.5255 15.1545 46.7646 14.5653 46.7721Z" fill="#F24A57"/>
<path d="M14.5194 45.2012C14.1668 45.1138 13.8845 44.9303 13.9131 44.5132C13.9418 44.0961 14.1998 43.8783 14.5997 43.9112C14.6785 43.9132 14.756 43.931 14.8278 43.9635C14.8995 43.996 14.9641 44.0425 15.0175 44.1004C15.071 44.1583 15.1123 44.2263 15.139 44.3004C15.1657 44.3745 15.1773 44.4532 15.173 44.5319C15.173 44.9189 14.9451 45.1625 14.5194 45.2012Z" fill="#F24A57"/>
<path d="M144.79 43.4773C146.398 39.8524 148.083 36.2528 149.586 32.5775C150.162 31.1578 150.876 30.4396 152.43 30.7588C152.771 30.7905 153.114 30.7905 153.455 30.7588C153.434 31.198 153.289 31.6221 153.035 31.9811C150.838 36.9374 148.599 41.8728 146.474 46.8585C146.054 47.8204 145.47 47.8162 144.701 47.7784C143.933 47.7406 143.231 47.959 142.778 46.9005C140.589 41.7299 138.271 36.6098 135.969 31.4518C135.899 31.3539 135.854 31.2399 135.839 31.1202C135.825 31.0006 135.84 30.8792 135.885 30.7672C136.549 30.7672 137.267 30.8176 137.985 30.7672C138.703 30.7168 139.09 30.994 139.38 31.6786C140.971 35.3875 142.614 39.0754 144.256 42.759C144.369 42.9858 144.336 43.3513 144.79 43.4773Z" fill="#F24A57"/>
<path d="M95.0413 35.9251C95.0413 32.3884 95.0833 28.8476 95.0161 25.311C95.0161 24.3575 95.2387 23.9963 96.1922 24.1475C96.5265 24.1958 96.866 24.1958 97.2003 24.1475C98.0067 24.0299 98.1747 24.3827 98.1705 25.1429C98.1397 32.3422 98.1397 39.543 98.1705 46.7451C98.1705 47.5851 97.9521 47.9043 97.1121 47.7909C96.7359 47.7384 96.3542 47.7384 95.978 47.7909C95.1379 47.9085 95.0161 47.5305 95.0245 46.7871C95.0623 43.1664 95.0413 39.55 95.0413 35.9251Z" fill="#F24A57"/>
<path d="M68.6764 41.0536C68.1723 40.3689 68.2269 40.1253 68.9956 39.7221C71.667 38.3192 72.7339 35.9418 72.6877 33.031C72.6373 30.032 71.2848 27.789 68.5504 26.4618C67.3366 25.8623 66.0059 25.5368 64.6525 25.5083C61.8257 25.4663 58.9989 25.5083 56.1763 25.4159C55.2312 25.3865 54.9918 25.6301 55.0002 26.5878C55.0506 32.9134 55.0296 39.2391 55.0296 45.5689C55.0296 47.8371 55.0296 47.8035 57.2684 47.8035C58.037 47.8035 58.2974 47.6228 58.268 46.8206C58.2008 45.1405 58.268 43.4604 58.2344 41.7592C58.2344 41.146 58.4151 40.9696 59.0199 40.978C60.8344 41.006 62.6546 40.999 64.4803 40.957C65.0137 40.957 65.2153 41.2342 65.459 41.5828C66.299 42.7883 67.3071 43.914 67.9791 45.2035C69.1258 47.3582 70.6757 48.4293 73.3471 47.5892C71.7888 45.4009 70.2683 43.1999 68.6764 41.0536ZM65.7362 37.8572C63.4554 38.3444 61.1158 38.0546 58.8099 38.1176C58.2176 38.1176 58.2596 37.7438 58.2638 37.3573V33.1906C58.2638 31.8437 58.2638 30.4968 58.2638 29.1499C58.2638 28.7299 58.1882 28.3099 58.8687 28.3099C61.0948 28.4149 63.3294 28.1167 65.543 28.5409C68.0631 29.0281 69.424 30.5822 69.4744 33.0394C69.5122 35.6142 68.2438 37.3237 65.7236 37.8698L65.7362 37.8572Z" fill="#F24A57"/>
<path d="M80.7355 31.0321C79.1781 31.5223 77.8043 32.47 76.793 33.7518C75.7816 35.0336 75.1796 36.5901 75.0651 38.2188C74.7711 41.9403 75.9934 45.0275 79.3998 46.8C82.8063 48.5726 86.1665 48.392 89.3209 46.1868C90.938 45.0569 90.8876 44.9771 89.5729 43.4692L88.8715 42.6711C88.5775 42.9946 88.3675 43.2634 88.1196 43.4902C85.129 46.2288 79.9375 45.2165 78.522 41.6421C78.1859 40.802 78.1313 40.382 79.3074 40.382C83.0583 40.4492 86.8134 40.382 90.5684 40.4198C91.2069 40.4198 91.5345 40.34 91.5723 39.5587C91.8663 33.5061 86.4815 29.2302 80.7355 31.0321ZM87.6114 37.8366C86.1833 37.7862 84.751 37.8366 83.3187 37.8366C81.8864 37.8366 80.5381 37.7946 79.152 37.8366C78.2405 37.8744 78.1859 37.5468 78.4632 36.7991C78.8434 35.8041 79.519 34.9492 80.3992 34.3491C81.2793 33.7491 82.322 33.4326 83.3872 33.4422C84.4524 33.4518 85.4891 33.787 86.3583 34.4028C87.2275 35.0186 87.8876 35.8856 88.2499 36.8873C88.5061 37.5972 88.4389 37.8702 87.6114 37.8366Z" fill="#F24A57"/>
<path d="M165.196 31.3638C163.647 30.6736 161.926 30.4612 160.256 30.7538C158.585 31.0463 157.039 31.8305 155.817 33.0061C152.679 36.1606 152.561 41.8268 155.565 45.1114C158.568 48.396 164.431 48.8665 167.792 46.1363C169.237 44.9644 169.19 45.0022 168.031 43.5489C167.443 42.8138 167.17 42.7886 166.456 43.4817C163.591 46.2833 157.434 45.3214 156.594 40.4239H157.904C161.575 40.4239 165.246 40.4239 168.917 40.4239C169.505 40.4239 169.93 40.4239 169.976 39.5838C170.087 37.8937 169.691 36.209 168.84 34.7448C167.988 33.2806 166.72 32.1035 165.196 31.3638ZM165.906 37.8407C164.52 37.7735 163.129 37.8407 161.739 37.8407C160.349 37.8407 158.874 37.7945 157.446 37.8407C156.606 37.8785 156.606 37.5509 156.812 36.8956C157.163 35.8741 157.828 34.99 158.713 34.3698C159.597 33.7496 160.655 33.4251 161.735 33.443C162.794 33.438 163.828 33.7573 164.7 34.358C165.572 34.9588 166.239 35.8121 166.611 36.8032C166.855 37.5047 166.847 37.8911 165.906 37.8407Z" fill="#F24A57"/>
<path d="M110.386 30.6411C108.56 30.5107 106.745 31.0053 105.238 32.0434C103.731 33.0816 102.623 34.6016 102.094 36.3535C100.834 40.4278 102.262 44.5651 105.665 46.6358C108.953 48.6394 113.863 48.1647 116.552 45.7454C117.967 44.4853 116.489 44.0317 116.039 43.2966C115.388 42.2297 115.04 43.2546 114.674 43.5738C111.562 46.3166 106.122 45.0355 105.013 41.2973C104.816 40.6378 104.892 40.3942 105.644 40.4068C107.584 40.4488 109.525 40.4068 111.465 40.4068C113.406 40.4068 115.346 40.3816 117.287 40.4068C117.925 40.4068 118.156 40.2472 118.202 39.5667C118.293 38.4637 118.162 37.3536 117.815 36.3025C117.468 35.2514 116.914 34.2807 116.185 33.4481C115.456 32.6154 114.566 31.9379 113.57 31.4557C112.574 30.9735 111.491 30.6965 110.386 30.6411ZM114.292 37.832C112.86 37.79 111.427 37.832 109.991 37.832C108.554 37.832 107.21 37.7732 105.824 37.832C104.791 37.8908 104.824 37.496 105.118 36.7399C105.509 35.7472 106.194 34.8981 107.083 34.307C107.971 33.7159 109.018 33.4113 110.085 33.4342C111.152 33.4571 112.185 33.8064 113.047 34.435C113.909 35.0636 114.558 35.9414 114.905 36.95C115.128 37.6304 115.044 37.8698 114.292 37.832Z" fill="#F24A57"/>
<path d="M134.222 36.3368C134.1 33.3084 132.239 31.3805 129.244 30.8176C126.737 30.3357 124.14 30.7364 121.894 31.9517C120.033 32.9262 120.067 33.0102 121.13 34.8163C121.55 35.543 121.81 35.4716 122.423 35.0095C123.242 34.374 124.186 33.9192 125.193 33.6752C126.2 33.4312 127.247 33.4036 128.266 33.594C130.076 33.9049 130.954 34.9129 131.181 36.7401C131.273 37.4877 131.109 37.7649 130.278 37.7607C128.257 37.7607 126.229 37.5801 124.221 37.9455C121.638 38.416 120.021 40.1003 119.882 42.4819C119.743 44.8634 121.218 46.9132 123.746 47.5684C126.275 48.2237 128.837 48.0347 131.437 46.0857C130.786 47.8498 131.685 47.8624 132.697 47.791C132.992 47.7637 133.289 47.7637 133.583 47.791C134.125 47.8456 134.327 47.6524 134.318 47.0854C134.289 43.5025 134.365 39.9155 134.222 36.3368ZM129.249 44.5904C128.567 44.9776 127.811 45.2137 127.03 45.2825C126.25 45.3514 125.463 45.2514 124.725 44.9894C124.202 44.8669 123.74 44.5618 123.422 44.1291C123.104 43.6964 122.951 43.1644 122.99 42.6289C123.036 41.394 123.83 40.7387 124.973 40.5287C126.85 40.1549 128.753 40.3691 130.652 40.3523C131.626 40.3523 131.021 41.1924 131.227 41.5914C131.214 43.0027 130.37 43.9142 129.249 44.5904Z" fill="#F24A57"/>
</svg>
