<svg width="244" height="244" viewBox="0 0 244 244" fill="none" xmlns="http://www.w3.org/2000/svg">
<path d="M179.166 235.378C181.964 229.074 184.893 222.813 187.508 216.421C188.509 213.952 189.751 212.702 192.454 213.258C193.047 213.313 193.644 213.313 194.236 213.258C194.201 214.021 193.947 214.759 193.506 215.383C189.685 224.004 185.792 232.587 182.095 241.259C181.365 242.932 180.349 242.924 179.012 242.859C177.675 242.793 176.455 243.173 175.666 241.332C171.86 232.339 167.828 223.434 163.824 214.463C163.702 214.293 163.625 214.094 163.599 213.886C163.574 213.678 163.601 213.467 163.678 213.272C164.833 213.272 166.082 213.36 167.331 213.272C168.58 213.184 169.252 213.667 169.756 214.857C172.525 221.308 175.381 227.722 178.238 234.129C178.435 234.523 178.377 235.159 179.166 235.378Z" fill="black"/>
<path d="M92.6415 222.243C92.6415 216.092 92.7145 209.934 92.5977 203.783C92.5977 202.124 92.9848 201.496 94.6431 201.759C95.2245 201.843 95.815 201.843 96.3964 201.759C97.799 201.554 98.0912 202.168 98.0839 203.49C98.0304 216.012 98.0304 228.535 98.0839 241.061C98.0839 242.523 97.7041 243.078 96.243 242.88C95.5887 242.789 94.9249 242.789 94.2706 242.88C92.8095 243.085 92.5977 242.428 92.6123 241.135C92.678 234.837 92.6415 228.547 92.6415 222.243Z" fill="black"/>
<path d="M46.7864 231.163C45.9098 229.972 46.0048 229.548 47.3416 228.847C51.9878 226.407 53.8434 222.272 53.763 217.209C53.6753 211.993 51.323 208.092 46.5673 205.784C44.4563 204.741 42.1419 204.175 39.788 204.126C34.8715 204.053 29.955 204.126 25.0459 203.965C23.4022 203.914 22.9858 204.338 23.0004 206.003C23.088 217.005 23.0515 228.007 23.0515 239.016C23.0515 242.961 23.0515 242.902 26.9452 242.902C28.2821 242.902 28.735 242.588 28.6839 241.193C28.567 238.271 28.6839 235.349 28.6255 232.39C28.6255 231.323 28.9396 231.016 29.9915 231.031C33.1474 231.08 36.3131 231.068 39.4884 230.995C40.4162 230.995 40.7669 231.477 41.1906 232.083C42.6516 234.18 44.4049 236.138 45.5738 238.38C47.5681 242.128 50.2638 243.991 54.9099 242.53C52.1997 238.724 49.5552 234.896 46.7864 231.163ZM41.6727 225.603C37.706 226.451 33.6369 225.947 29.6263 226.056C28.5962 226.056 28.6693 225.406 28.6766 224.734V217.487C28.6766 215.145 28.6766 212.802 28.6766 210.459C28.6766 209.729 28.5451 208.998 29.7286 208.998C33.6004 209.181 37.4868 208.662 41.3367 209.4C45.7199 210.248 48.0868 212.95 48.1745 217.224C48.2402 221.702 46.034 224.675 41.6508 225.625L41.6727 225.603Z" fill="black"/>
<path d="M67.7602 213.732C65.0515 214.585 62.6622 216.233 60.9032 218.462C59.1442 220.692 58.0971 223.399 57.898 226.232C57.3867 232.704 59.5125 238.073 65.4371 241.156C71.3617 244.239 77.206 243.925 82.6923 240.09C85.5048 238.125 85.4171 237.986 83.1306 235.363L81.9106 233.975C81.3992 234.538 81.034 235.005 80.6029 235.4C75.4016 240.163 66.3722 238.402 63.9103 232.185C63.3259 230.724 63.2309 229.994 65.2764 229.994C71.8 230.111 78.331 229.994 84.8619 230.06C85.9723 230.06 86.5422 229.921 86.6079 228.562C87.1193 218.035 77.7539 210.598 67.7602 213.732ZM79.719 225.567C77.2352 225.479 74.7441 225.567 72.253 225.567C69.7619 225.567 67.4169 225.494 65.0061 225.567C63.4209 225.633 63.3259 225.063 63.808 223.762C64.4694 222.032 65.6444 220.545 67.1752 219.501C68.706 218.458 70.5194 217.907 72.372 217.924C74.2247 217.941 76.0279 218.524 77.5396 219.595C79.0513 220.666 80.1993 222.173 80.8294 223.916C81.275 225.15 81.1581 225.625 79.719 225.567Z" fill="black"/>
<path d="M214.655 214.309C211.96 213.109 208.969 212.739 206.063 213.248C203.157 213.757 200.469 215.121 198.342 217.166C192.885 222.652 192.681 232.507 197.904 238.219C203.127 243.932 213.325 244.75 219.17 240.002C221.683 237.964 221.602 238.029 219.586 235.502C218.563 234.223 218.088 234.18 216.847 235.385C211.864 240.258 201.155 238.585 199.694 230.067H201.973C208.358 230.067 214.743 230.067 221.127 230.067C222.15 230.067 222.888 230.067 222.968 228.606C223.161 225.666 222.473 222.736 220.992 220.189C219.511 217.643 217.305 215.596 214.655 214.309ZM215.89 225.574C213.479 225.457 211.061 225.574 208.643 225.574C206.225 225.574 203.66 225.494 201.177 225.574C199.716 225.64 199.716 225.07 200.074 223.93C200.684 222.154 201.841 220.616 203.379 219.537C204.917 218.459 206.757 217.894 208.635 217.925C210.477 217.917 212.277 218.472 213.793 219.517C215.309 220.562 216.469 222.046 217.117 223.77C217.541 224.99 217.526 225.662 215.89 225.574Z" fill="black"/>
<path d="M119.328 213.053C116.154 212.826 112.996 213.686 110.376 215.492C107.755 217.297 105.826 219.941 104.907 222.988C102.716 230.074 105.2 237.27 111.117 240.871C116.837 244.356 125.377 243.53 130.052 239.323C132.514 237.131 129.943 236.342 129.161 235.064C128.029 233.208 127.422 234.991 126.787 235.546C121.374 240.316 111.913 238.088 109.985 231.586C109.641 230.439 109.773 230.016 111.08 230.038C114.455 230.111 117.83 230.038 121.206 230.038C124.581 230.038 127.956 229.994 131.331 230.038C132.441 230.038 132.843 229.76 132.923 228.577C133.081 226.658 132.852 224.727 132.249 222.899C131.647 221.071 130.682 219.383 129.414 217.935C128.146 216.487 126.6 215.308 124.867 214.47C123.134 213.631 121.251 213.149 119.328 213.053ZM126.122 225.559C123.631 225.486 121.14 225.559 118.641 225.559C116.143 225.559 113.805 225.457 111.394 225.559C109.597 225.662 109.656 224.975 110.167 223.66C110.846 221.933 112.039 220.457 113.583 219.429C115.128 218.401 116.95 217.871 118.805 217.911C120.66 217.95 122.458 218.558 123.957 219.651C125.456 220.745 126.584 222.271 127.189 224.025C127.576 225.209 127.43 225.625 126.122 225.559Z" fill="black"/>
<path d="M160.786 222.959C160.574 217.692 157.337 214.339 152.129 213.36C147.767 212.522 143.25 213.219 139.344 215.332C136.108 217.027 136.167 217.173 138.015 220.314C138.745 221.578 139.198 221.454 140.265 220.651C141.688 219.545 143.33 218.754 145.082 218.33C146.833 217.905 148.655 217.857 150.427 218.189C153.575 218.729 155.102 220.482 155.496 223.66C155.657 224.961 155.372 225.443 153.926 225.435C150.412 225.435 146.884 225.121 143.392 225.757C138.899 226.575 136.086 229.505 135.845 233.647C135.604 237.789 138.168 241.354 142.566 242.493C146.964 243.633 151.42 243.304 155.942 239.915C154.81 242.983 156.373 243.005 158.134 242.881C158.646 242.833 159.162 242.833 159.675 242.881C160.618 242.976 160.968 242.639 160.954 241.653C160.902 235.422 161.034 229.183 160.786 222.959ZM152.136 237.314C150.951 237.987 149.635 238.398 148.278 238.518C146.92 238.637 145.553 238.464 144.268 238.008C143.359 237.795 142.556 237.264 142.002 236.512C141.449 235.759 141.183 234.834 141.251 233.902C141.331 231.755 142.712 230.615 144.699 230.25C147.965 229.6 151.274 229.972 154.576 229.943C156.271 229.943 155.219 231.404 155.577 232.098C155.555 234.553 154.087 236.138 152.136 237.314Z" fill="black"/>
<path d="M132.71 76.002C113.181 79.3945 93.8761 82.7457 74.5772 86.1264C72.4886 86.4922 70.4472 87.094 69.3911 84.4272C67.1727 78.6747 62.966 77.7602 57.6855 79.7072C54.6234 80.8282 54.0157 79.7072 54.1455 76.7572C54.3638 70.4029 54.1455 64.0368 54.2576 57.6766C54.5762 43.4104 64.8009 36.9204 77.2676 43.6936C95.8172 53.8003 114.007 64.5678 132.338 75.0698C132.45 75.1347 132.48 75.471 132.71 76.002Z" fill="black"/>
<path d="M135.477 82.3149C132.126 92.0322 128.94 101.195 125.813 110.399C125.622 111.145 125.202 111.812 124.613 112.307C124.024 112.802 123.294 113.1 122.527 113.16C112.296 114.853 102.083 116.7 91.8467 118.47C90.7493 118.659 89.7935 119.06 88.9616 117.52C85.0204 110.346 79.7635 104.045 75.1792 97.2891C72.4003 93.1591 72.3236 93.1591 77.0082 92.3626C95.5342 89.1176 114.062 85.8903 132.592 82.6807C133.353 82.545 134.108 82.486 135.477 82.3149Z" fill="black"/>
<path d="M139.678 150.136C139.3 151.729 138.427 152.885 136.728 152.643C135.217 152.419 134.126 151.416 134.368 149.693C134.387 149.367 134.471 149.049 134.616 148.757C134.762 148.464 134.964 148.205 135.212 147.992C135.46 147.78 135.748 147.621 136.059 147.522C136.37 147.424 136.698 147.39 137.023 147.421C138.686 147.445 139.56 148.489 139.678 150.136Z" fill="black"/>
<path d="M179.633 102.233C168.322 95.6254 156.876 89.2534 145.59 82.6041C143.076 81.1232 142.468 81.9197 141.69 84.2502C138.616 93.4778 135.2 102.599 132.25 111.868C130.716 116.694 127.766 119.096 122.857 119.839C114.384 121.113 105.995 123.001 97.4869 123.969C92.5073 124.559 90.0588 126.583 88.985 131.491C88.2593 134.819 89.0322 135.031 91.8524 134.512C106.555 131.887 121.276 129.379 135.984 126.842C142.274 125.751 142.173 125.768 143.241 131.981C143.601 134.04 143.401 134.931 141.111 135.338C124.078 138.2 107.086 141.303 90.0411 144.088C81.8519 145.445 76.6127 138.925 79.2323 130.96C80.2117 128.01 81.2678 125.06 82.5068 122.217C82.8277 121.594 82.9564 120.889 82.8766 120.193C82.7968 119.496 82.512 118.839 82.0584 118.305C75.5094 109.107 68.9191 99.9265 62.5884 90.575C60.4644 87.4421 58.069 89.1531 55.7031 89.4245C53.1248 89.7254 54.2399 91.8317 54.2399 93.1179C54.1691 113.127 54.1533 133.134 54.1927 153.139C54.1927 161.062 53.9862 168.998 54.293 176.91C54.8063 189.89 64.2699 195.666 76.123 190.48C77.5363 189.835 78.9149 189.116 80.253 188.326C96.12 179.228 111.979 170.121 127.831 161.003C129.353 160.13 130.863 159.233 132.492 158.301C127.949 154.077 126.822 150.383 128.598 146.312C129.39 144.515 130.738 143.019 132.444 142.045C134.149 141.072 136.122 140.671 138.073 140.902C142.433 141.368 145.123 144.253 146.504 150.289C157.797 143.799 168.865 137.574 179.815 131.132C194.176 122.677 194.07 110.682 179.633 102.233ZM91.7757 167.021C89.9671 167.028 88.197 166.499 86.6889 165.501C85.1809 164.502 84.0025 163.079 83.3026 161.412C82.6027 159.744 82.4127 157.906 82.7565 156.131C83.1004 154.355 83.9627 152.721 85.2345 151.435C86.5064 150.149 88.1308 149.269 89.9025 148.906C91.6743 148.543 93.5139 148.713 95.1892 149.394C96.8644 150.076 98.3002 151.239 99.315 152.736C100.33 154.233 100.878 155.997 100.891 157.805C100.887 160.231 99.9281 162.557 98.2224 164.282C96.5167 166.006 94.201 166.99 91.7757 167.021Z" fill="black"/>
<path d="M91.587 160.555C90.1356 160.195 88.9733 159.44 89.0913 157.723C89.2093 156.006 90.2713 155.109 91.9174 155.245C92.2415 155.253 92.5608 155.326 92.8562 155.46C93.1516 155.594 93.4171 155.785 93.6372 156.024C93.8572 156.262 94.0272 156.542 94.1372 156.847C94.2472 157.152 94.2948 157.476 94.2774 157.8C94.2774 159.393 93.3393 160.396 91.587 160.555Z" fill="black"/>
</svg>
