<?xml version="1.0" encoding="utf-8"?>
<!-- Generator: Adobe Illustrator 23.0.3, SVG Export Plug-In . SVG Version: 6.00 Build 0)  -->
<svg version="1.1" id="Camada_1" xmlns="http://www.w3.org/2000/svg" xmlns:xlink="http://www.w3.org/1999/xlink" x="0px" y="0px"
	 viewBox="0 0 300 300" style="enable-background:new 0 0 300 300;" xml:space="preserve">
<style type="text/css">
	.st0{fill:#FFFFFF;}
</style>
<title>ReleaveLogo</title>
<g>
	<path class="st0" d="M227,234.4c3.8-8.6,7.8-17.2,11.4-25.9c1.4-3.4,3.1-5.1,6.8-4.3c0.8,0.1,1.6,0.1,2.4,0c0,1-0.4,2.1-1,2.9
		c-5.2,11.8-10.6,23.6-15.6,35.4c-1,2.3-2.4,2.3-4.2,2.2s-3.5,0.4-4.6-2.1c-5.2-12.3-10.7-24.5-16.2-36.8c-0.3-0.5-0.4-1.1-0.2-1.6
		c1.6,0,3.3,0.1,5,0s2.6,0.5,3.3,2.2c3.8,8.8,7.7,17.6,11.6,26.4C226,233.2,225.9,234.1,227,234.4z"/>
	<path class="st0" d="M108.6,216.4c0-8.4,0.1-16.9-0.1-25.3c0-2.3,0.5-3.1,2.8-2.8c0.8,0.1,1.6,0.1,2.4,0c1.9-0.3,2.3,0.6,2.3,2.4
		c-0.1,17.1-0.1,34.3,0,51.4c0,2-0.5,2.8-2.5,2.5c-0.9-0.1-1.8-0.1-2.7,0c-2,0.3-2.3-0.6-2.3-2.4C108.6,233.6,108.6,225,108.6,216.4
		z"/>
	<path class="st0" d="M45.8,228.6c-1.2-1.6-1.1-2.2,0.8-3.2c6.4-3.3,8.9-9,8.8-15.9c-0.1-7.1-3.3-12.5-9.9-15.6
		c-2.9-1.4-6.1-2.2-9.3-2.3c-6.7-0.1-13.5,0-20.2-0.2c-2.3-0.1-2.8,0.5-2.8,2.8c0.1,15.1,0.1,30.1,0.1,45.2c0,5.4,0,5.3,5.3,5.3
		c1.8,0,2.5-0.4,2.4-2.3c-0.2-4,0-8-0.1-12.1c0-1.5,0.4-1.9,1.9-1.9c4.3,0.1,8.7,0.1,13-0.1c1.3,0,1.8,0.7,2.3,1.5
		c2,2.9,4.4,5.6,6,8.6c2.7,5.1,6.4,7.7,12.8,5.7C53.2,238.9,49.6,233.7,45.8,228.6z M38.8,221c-5.4,1.2-11,0.5-16.5,0.6
		c-1.4,0-1.3-0.9-1.3-1.8v-9.9c0-3.2,0-6.4,0-9.6c0-1-0.2-2,1.4-2c5.3,0.3,10.6-0.5,15.9,0.6c6,1.2,9.2,4.9,9.4,10.7
		C47.8,215.6,44.8,219.7,38.8,221L38.8,221z"/>
	<path class="st0" d="M74.5,204.7c-7.6,2.4-12.9,9.2-13.5,17.1c-0.7,8.9,2.2,16.2,10.3,20.4s16.1,3.8,23.6-1.5
		c3.8-2.7,3.7-2.9,0.6-6.5l-1.7-1.9c-0.7,0.8-1.2,1.4-1.8,1.9c-7.1,6.5-19.5,4.1-22.8-4.4c-0.8-2-0.9-3,1.9-3
		c8.9,0.2,17.9,0,26.8,0.1c1.5,0,2.3-0.2,2.4-2.1C101,210.6,88.2,200.4,74.5,204.7z M90.9,220.9c-3.4-0.1-6.8,0-10.2,0
		s-6.6-0.1-9.9,0c-2.2,0.1-2.3-0.7-1.6-2.5c2.5-6.4,9.6-9.6,16-7.2c3.4,1.3,6,4,7.3,7.4C93,220.4,92.8,221,90.9,220.9z"/>
	<path class="st0" d="M275.6,205.5c-7.5-3.4-16.4-1.8-22.3,3.9c-7.5,7.5-7.8,21-0.6,28.8c7.2,7.8,21.1,8.9,29.1,2.4
		c3.4-2.8,3.3-2.7,0.6-6.2c-1.4-1.8-2-1.8-3.8-0.2c-6.8,6.7-21.5,4.4-23.5-7.3h3.1c8.7,0,17.5,0,26.2,0c1.4,0,2.4,0,2.5-2
		C287.5,216.8,283,209.1,275.6,205.5z M277.3,220.9c-3.3-0.2-6.6,0-9.9,0s-6.8-0.1-10.2,0c-2,0.1-2-0.7-1.5-2.3
		c1.7-5,6.4-8.3,11.7-8.2c5.2,0,9.8,3.2,11.6,8C279.5,220.1,279.5,221.1,277.3,220.9z"/>
	<path class="st0" d="M145.1,203.8c-9-0.6-17.1,5-19.7,13.6c-3,9.7,0.4,19.6,8.5,24.5c7.8,4.8,19.5,3.6,25.9-2.1
		c3.4-3-0.1-4.1-1.2-5.8c-1.6-2.5-2.4-0.1-3.3,0.7c-7.4,6.5-20.4,3.5-23-5.4c-0.5-1.6-0.3-2.1,1.5-2.1c4.6,0.1,9.2,0,13.9,0
		s9.2-0.1,13.9,0c1.5,0,2.1-0.4,2.2-2c0.9-10.8-7.2-20.3-18-21.2C145.5,203.8,145.3,203.8,145.1,203.8z M154.4,220.9
		c-3.4-0.1-6.8,0-10.2,0s-6.6-0.1-9.9,0c-2.5,0.1-2.4-0.8-1.7-2.6c2.5-6.4,9.7-9.5,16.1-7c3.4,1.3,6,4.1,7.2,7.5
		C156.4,220.4,156.2,221,154.4,220.9L154.4,220.9z"/>
	<path class="st0" d="M201.8,217.4c-0.3-7.2-4.7-11.8-11.9-13.1c-6-1.1-12.2-0.2-17.5,2.7c-4.4,2.3-4.4,2.5-1.8,6.8
		c1,1.7,1.6,1.6,3.1,0.5c3.9-3.1,9-4.3,13.9-3.4c4.3,0.7,6.4,3.1,6.9,7.5c0.2,1.8-0.2,2.4-2.1,2.4c-4.8,0-9.6-0.4-14.4,0.4
		c-6.1,1.1-10,5.1-10.3,10.8s3.2,10.6,9.2,12.1s12.1,1.1,18.3-3.5c-1.6,4.2,0.6,4.2,3,4.1c0.7-0.1,1.4-0.1,2.1,0
		c1.3,0.1,1.8-0.3,1.8-1.7C202,234.4,202.2,225.9,201.8,217.4z M190,237c-3.3,1.9-7.2,2.2-10.8,0.9c-2.6-0.6-4.3-3-4.1-5.6
		c0.1-2.9,2-4.5,4.7-5c4.5-0.9,9-0.4,13.5-0.4c2.3,0,0.9,2,1.4,2.9C194.7,233.2,192.7,235.4,190,237z"/>
	<path class="st0" d="M170.4,69.6c-15.1,2.6-30,5.2-44.9,7.8c-1.6,0.3-3.2,0.8-4-1.3c-1.7-4.4-5-5.2-9-3.7c-2.4,0.9-2.8,0-2.8-2.3
		c0.2-4.9,0-9.8,0.1-14.8c0.2-11,8.2-16,17.8-10.8c14.4,7.8,28.4,16.1,42.6,24.3C170.2,69,170.3,69.2,170.4,69.6z"/>
	<path class="st0" d="M172.6,74.5c-2.6,7.5-5.1,14.6-7.5,21.7c-0.3,1.2-1.3,2-2.5,2.1c-7.9,1.3-15.8,2.7-23.7,4.1
		c-0.9,0.2-1.6,0.4-2.2-0.7c-3.1-5.6-7.1-10.4-10.7-15.6c-2.2-3.2-2.2-3.2,1.4-3.8c14.3-2.5,28.7-5,43-7.5
		C170.9,74.7,171.5,74.6,172.6,74.5z"/>
	<path class="st0" d="M175.8,126.9c-0.3,1.2-1,2.1-2.3,1.9c-1.1,0-1.9-0.9-1.9-2c0-0.1,0-0.2,0-0.3c0.1-1,1-1.8,2-1.8c0,0,0,0,0,0
		c1.1,0,2,0.8,2.1,1.9C175.8,126.8,175.8,126.9,175.8,126.9z"/>
	<path class="st0" d="M206.7,89.9c-8.8-5.1-17.6-10-26.3-15.2c-2-1.2-2.4-0.5-3,1.3c-2.4,7.1-5,14.2-7.3,21.4
		c-1.2,3.7-3.5,5.6-7.3,6.2c-6.6,1-13,2.4-19.6,3.2c-3.9,0.5-5.8,2-6.6,5.8c-0.6,2.6,0,2.7,2.2,2.3c11.4-2,22.8-4,34.1-5.9
		c4.9-0.8,4.8-0.8,5.6,4c0.3,1.6,0.1,2.3-1.6,2.6c-13.2,2.2-26.3,4.6-39.5,6.8c-6.3,1-10.4-4-8.4-10.2c0.8-2.3,1.6-4.6,2.5-6.8
		c0.5-1,0.4-2.2-0.3-3c-5.1-7.1-10.2-14.2-15.1-21.4c-1.7-2.4-3.5-1.1-5.3-0.9c-2,0.2-1.1,1.9-1.1,2.9c-0.1,15.5,0,30.9,0,46.4
		c0,6.1-0.2,12.3,0.1,18.4c0.4,10,7.7,14.5,16.9,10.5c1.1-0.5,2.2-1,3.2-1.7l36.8-21.1c1.2-0.7,2.4-1.4,3.6-2.1
		c-3.5-3.3-4.4-6.1-3-9.3c1.3-2.9,4.2-4.5,7.3-4.2c3.4,0.4,5.4,2.6,6.5,7.3c8.7-5,17.3-9.8,25.8-14.8
		C218,105.7,217.9,96.4,206.7,89.9z M138.8,140c-3.9,0-7.1-3.1-7.1-7.1s3.1-7.1,7.1-7.1c3.9,0,7.1,3.1,7.1,7
		C145.8,136.8,142.7,139.9,138.8,140z"/>
	<path class="st0" d="M138.6,135c-1.1-0.3-2-0.9-1.9-2.2c0-1.1,0.9-2,2-2s2,0.9,2,2c0.1,1.1-0.8,2.1-1.9,2.1
		C138.8,135,138.7,135,138.6,135z"/>
</g>
</svg>
