<svg xmlns="http://www.w3.org/2000/svg" viewBox="0 0 300 300"><defs><style>.cls-1{fill:#171717;}</style></defs><title>ReleaveIcone</title><g id="Camada_2" data-name="Camada 2"><path d="M171,81.35c-33.1,5.75-65.82,11.43-98.53,17.16-3.54.62-7,1.64-8.79-2.88-3.76-9.75-10.89-11.3-19.84-8-5.19,1.9-6.22,0-6-5,.37-10.77,0-21.56.19-32.34.54-24.18,17.87-35.18,39-23.7,31.44,17.13,62.27,35.38,93.34,53.18C170.56,79.88,170.61,80.45,171,81.35Z"/><path d="M175.69,92.05c-5.68,16.47-11.08,32-16.38,47.6a6.25,6.25,0,0,1-5.57,4.68c-17.34,2.87-34.65,6-52,9-1.86.32-3.48,1-4.89-1.61-6.68-12.16-15.59-22.84-23.36-34.29-4.71-7-4.84-7,3.1-8.35q47.1-8.25,94.21-16.41C172.09,92.44,173.37,92.34,175.69,92.05Z"/><path class="cls-1" d="M182.81,207c-.64,2.7-2.12,4.66-5,4.25-2.56-.38-4.41-2.08-4-5a4.11,4.11,0,0,1,4.5-3.85C181.13,202.44,182.61,204.21,182.81,207Z"/><path d="M250.53,125.81c-19.17-11.2-38.57-22-57.7-33.27-4.26-2.51-5.29-1.16-6.61,2.79-5.21,15.64-11,31.1-16,46.81-2.6,8.18-7.6,12.25-15.92,13.51-14.36,2.16-28.58,5.36-43,7-8.44,1-12.59,4.43-14.41,12.75-1.23,5.64.08,6,4.86,5.12,24.92-4.45,49.87-8.7,74.8-13,10.66-1.85,10.49-1.82,12.3,8.71.61,3.49.27,5-3.61,5.69-28.87,4.85-57.67,10.11-86.56,14.83C84.8,199.05,75.92,188,80.36,174.5c1.66-5,3.45-10,5.55-14.82a6,6,0,0,0-.76-6.63c-11.1-15.59-22.27-31.15-33-47-3.6-5.31-7.66-2.41-11.67-1.95-4.37.51-2.48,4.08-2.48,6.26q-.18,50.87-.08,101.73c0,13.43-.35,26.88.17,40.29.87,22,16.91,31.79,37,23a75.34,75.34,0,0,0,7-3.65q40.34-23.13,80.64-46.31c2.58-1.48,5.14-3,7.9-4.58-7.7-7.16-9.61-13.42-6.6-20.32a15.55,15.55,0,0,1,16.06-9.17c7.39.79,11.95,5.68,14.29,15.91,19.14-11,37.9-21.55,56.46-32.47C275.18,160.46,275,140.13,250.53,125.81ZM101.62,235.62A15.51,15.51,0,1,1,117.07,220,15.65,15.65,0,0,1,101.62,235.62Z"/><path class="cls-1" d="M101.3,224.66c-2.46-.61-4.43-1.89-4.23-4.8s2-4.43,4.79-4.2a4.11,4.11,0,0,1,4,4.33C105.86,222.69,104.27,224.39,101.3,224.66Z"/></g></svg>