<?xml version="1.0" encoding="utf-8"?>
<!-- Generator: Adobe Illustrator 23.0.3, SVG Export Plug-In . SVG Version: 6.00 Build 0)  -->
<svg version="1.1" id="Camada_1" xmlns="http://www.w3.org/2000/svg" xmlns:xlink="http://www.w3.org/1999/xlink" x="0px" y="0px"
	 viewBox="0 0 300 300" style="enable-background:new 0 0 300 300;" xml:space="preserve">
<style type="text/css">
	.st0{fill:#FFFFFF;}
</style>
<title>ReleaveIcone</title>
<g>
	<path class="st0" d="M171,81.3c-33.1,5.8-65.8,11.4-98.5,17.2c-3.5,0.6-7,1.6-8.8-2.9c-3.8-9.8-10.9-11.3-19.8-8
		c-5.2,1.9-6.2,0-6-5c0.4-10.8,0-21.6,0.2-32.3c0.5-24.2,17.9-35.2,39-23.7c31.4,17.1,62.3,35.4,93.3,53.2
		C170.6,79.9,170.6,80.4,171,81.3z"/>
	<path class="st0" d="M175.7,92.1c-5.7,16.5-11.1,32-16.4,47.6c-0.7,2.6-2.9,4.5-5.6,4.7c-17.3,2.9-34.7,6-52,9
		c-1.9,0.3-3.5,1-4.9-1.6c-6.7-12.2-15.6-22.8-23.4-34.3c-4.7-7-4.8-7,3.1-8.3c31.4-5.5,62.8-11,94.2-16.4
		C172.1,92.4,173.4,92.3,175.7,92.1z"/>
	<path class="st0" d="M182.8,207c-0.6,2.7-2.1,4.7-5,4.3c-2.6-0.4-4.4-2.1-4-5c0.1-2.3,2.1-4,4.3-3.9c0.1,0,0.1,0,0.2,0
		C181.1,202.4,182.6,204.2,182.8,207z"/>
	<path class="st0" d="M250.5,125.8c-19.2-11.2-38.6-22-57.7-33.3c-4.3-2.5-5.3-1.2-6.6,2.8c-5.2,15.6-11,31.1-16,46.8
		c-2.6,8.2-7.6,12.3-15.9,13.5c-14.4,2.2-28.6,5.4-43,7c-8.4,1-12.6,4.4-14.4,12.8c-1.2,5.6,0.1,6,4.9,5.1
		c24.9-4.4,49.9-8.7,74.8-13c10.7-1.9,10.5-1.8,12.3,8.7c0.6,3.5,0.3,5-3.6,5.7c-28.9,4.9-57.7,10.1-86.6,14.8
		c-13.9,2.3-22.8-8.8-18.3-22.3c1.7-5,3.4-10,5.6-14.8c1.1-2.2,0.8-4.8-0.8-6.6c-11.1-15.6-22.3-31.2-33-47
		c-3.6-5.3-7.7-2.4-11.7-1.9c-4.4,0.5-2.5,4.1-2.5,6.3c-0.1,33.9-0.1,67.8-0.1,101.7c0,13.4-0.3,26.9,0.2,40.3
		c0.9,22,16.9,31.8,37,23c2.4-1.1,4.7-2.3,7-3.6c26.9-15.4,53.8-30.9,80.6-46.3c2.6-1.5,5.1-3,7.9-4.6c-7.7-7.2-9.6-13.4-6.6-20.3
		c2.8-6.3,9.3-10,16.1-9.2c7.4,0.8,11.9,5.7,14.3,15.9c19.1-11,37.9-21.6,56.5-32.5C275.2,160.5,275,140.1,250.5,125.8z
		 M101.6,235.6c-8.6,0-15.5-6.9-15.6-15.5c0-8.6,6.9-15.5,15.5-15.6c8.5,0,15.5,6.9,15.6,15.4C117.1,228.6,110.2,235.5,101.6,235.6z
		"/>
	<path class="st0" d="M101.3,224.7c-2.5-0.6-4.4-1.9-4.2-4.8s2-4.4,4.8-4.2c2.3,0.1,4.1,1.9,4,4.2c0,0,0,0.1,0,0.1
		C105.9,222.7,104.3,224.4,101.3,224.7z"/>
</g>
</svg>
