<svg xmlns="http://www.w3.org/2000/svg" viewBox="0 0 300 300"><defs><style>.cls-1{fill:#F24A57;}.cls-2{fill:#171717;}</style></defs><title>ReleaveLogo</title><g id="Camada_2" data-name="Camada 2"><path d="M227,234.35c3.83-8.63,7.84-17.2,11.42-25.95,1.37-3.38,3.07-5.09,6.77-4.33a13.18,13.18,0,0,0,2.44,0,5.48,5.48,0,0,1-1,2.91c-5.23,11.8-10.56,23.55-15.62,35.42-1,2.29-2.39,2.28-4.22,2.19s-3.5.43-4.58-2.09C217,230.19,211.48,218,206,205.72a1.71,1.71,0,0,1-.2-1.63c1.58,0,3.29.12,5,0s2.63.54,3.32,2.17c3.79,8.83,7.7,17.61,11.61,26.38C226,233.18,225.92,234.05,227,234.35Z"/><path class="cls-1" d="M108.56,216.37c0-8.42.1-16.85-.06-25.27,0-2.27.53-3.13,2.8-2.77a8.39,8.39,0,0,0,2.4,0c1.92-.28,2.32.56,2.31,2.37q-.11,25.71,0,51.43c0,2-.52,2.76-2.52,2.49a9.77,9.77,0,0,0-2.7,0c-2,.28-2.29-.62-2.27-2.39C108.61,233.61,108.56,225,108.56,216.37Z"/><path d="M45.79,228.58c-1.2-1.63-1.07-2.21.76-3.17,6.36-3.34,8.9-9,8.79-15.93-.12-7.14-3.34-12.48-9.85-15.64a22,22,0,0,0-9.28-2.27c-6.73-.1-13.46,0-20.18-.22-2.25-.07-2.82.51-2.8,2.79.12,15.06.07,30.12.07,45.19,0,5.4,0,5.32,5.33,5.32,1.83,0,2.45-.43,2.38-2.34-.16-4,0-8-.08-12.05,0-1.46.43-1.88,1.87-1.86q6.48.1,13-.05c1.27,0,1.75.66,2.33,1.49,2,2.87,4.4,5.55,6,8.62,2.73,5.13,6.42,7.68,12.78,5.68C53.2,238.93,49.58,233.69,45.79,228.58Zm-7-7.61c-5.43,1.16-11,.47-16.49.62-1.41,0-1.31-.89-1.3-1.81v-9.92q0-4.81,0-9.62c0-1-.18-2,1.44-2,5.3.25,10.62-.46,15.89.55,6,1.16,9.24,4.86,9.36,10.71C47.78,215.63,44.76,219.7,38.76,221Z"/><path d="M74.5,204.72A19.36,19.36,0,0,0,61,221.83c-.7,8.86,2.21,16.21,10.32,20.43s16.11,3.79,23.62-1.46c3.85-2.69,3.73-2.88.6-6.47l-1.67-1.9c-.7.77-1.2,1.41-1.79,1.95-7.12,6.52-19.48,4.11-22.85-4.4-.8-2-.93-3,1.87-3,8.93.16,17.87,0,26.81.09,1.52,0,2.3-.19,2.39-2.05C101,210.61,88.18,200.43,74.5,204.72Zm16.37,16.2c-3.4-.12-6.81,0-10.22,0s-6.62-.1-9.92,0c-2.17.09-2.3-.69-1.64-2.47a12.43,12.43,0,0,1,23.3.21C93,220.35,92.84,221,90.87,220.92Z"/><path d="M275.58,205.51a20.3,20.3,0,0,0-22.33,3.91c-7.47,7.51-7.75,21-.6,28.82s21.11,8.94,29.11,2.44c3.44-2.79,3.33-2.7.57-6.16-1.4-1.75-2.05-1.81-3.75-.16-6.82,6.67-21.48,4.38-23.48-7.28h3.12q13.11,0,26.22,0c1.4,0,2.41,0,2.52-2A20.28,20.28,0,0,0,275.58,205.51Zm1.69,15.42c-3.3-.16-6.61,0-9.92,0s-6.82-.11-10.22,0c-2,.09-2-.69-1.51-2.25a12.18,12.18,0,0,1,11.72-8.22,12.34,12.34,0,0,1,11.61,8C279.53,220.13,279.51,221.05,277.27,220.93Z"/><path d="M145.09,203.79a19.19,19.19,0,0,0-19.74,13.6c-3,9.7.4,19.55,8.5,24.48,7.83,4.77,19.52,3.64,25.92-2.12,3.37-3-.15-4.08-1.22-5.83-1.55-2.54-2.38-.1-3.25.66-7.41,6.53-20.36,3.48-23-5.42-.47-1.57-.29-2.15,1.5-2.12,4.62.1,9.24,0,13.86,0s9.24-.06,13.86,0c1.52,0,2.07-.38,2.18-2A19.66,19.66,0,0,0,145.09,203.79Zm9.3,17.12c-3.41-.1-6.82,0-10.24,0s-6.62-.14-9.92,0c-2.46.14-2.38-.8-1.68-2.6a12.42,12.42,0,0,1,23.3.5C156.38,220.43,156.18,221,154.39,220.91Z"/><path d="M201.84,217.35c-.29-7.21-4.72-11.8-11.85-13.14a26.33,26.33,0,0,0-17.5,2.7c-4.43,2.32-4.35,2.52-1.82,6.82,1,1.73,1.62,1.56,3.08.46a17.45,17.45,0,0,1,13.91-3.37c4.31.74,6.4,3.14,6.94,7.49.22,1.78-.17,2.44-2.15,2.43-4.81,0-9.64-.43-14.42.44-6.15,1.12-10,5.13-10.33,10.8s3.18,10.55,9.2,12.11,12.12,1.11,18.31-3.53c-1.55,4.2.59,4.23,3,4.06a11.44,11.44,0,0,1,2.11,0c1.29.13,1.77-.33,1.75-1.68C202,234.41,202.18,225.87,201.84,217.35ZM190,237a13,13,0,0,1-10.77.95,5.37,5.37,0,0,1-4.13-5.62c.11-2.94,2-4.5,4.72-5,4.47-.89,9-.38,13.52-.42,2.32,0,.88,2,1.37,2.95C194.68,233.22,192.67,235.39,190,237Z"/><path d="M170.43,69.62c-15.1,2.63-30,5.22-44.94,7.83-1.62.29-3.22.75-4-1.31-1.72-4.45-5-5.16-9-3.66-2.37.86-2.84,0-2.76-2.29.17-4.92,0-9.84.09-14.76.24-11,8.15-16,17.76-10.81,14.35,7.82,28.41,16.14,42.59,24.26C170.24,69,170.26,69.21,170.43,69.62Z"/><path d="M172.58,74.5C170,82,167.52,89.11,165.1,96.22a2.84,2.84,0,0,1-2.53,2.13c-7.92,1.31-15.81,2.73-23.71,4.1-.86.15-1.6.44-2.24-.73-3.05-5.55-7.11-10.42-10.65-15.64-2.15-3.18-2.21-3.17,1.41-3.81q21.48-3.76,43-7.49C170.93,74.68,171.52,74.64,172.58,74.5Z"/><path class="cls-2" d="M175.82,126.92c-.29,1.23-1,2.12-2.26,1.93a1.93,1.93,0,0,1-1.82-2.29,1.88,1.88,0,0,1,2-1.76A2,2,0,0,1,175.82,126.92Z"/><path d="M206.72,89.91c-8.75-5.11-17.6-10-26.32-15.18-2-1.15-2.42-.53-3,1.27-2.37,7.14-5,14.19-7.29,21.36-1.19,3.73-3.47,5.58-7.27,6.16-6.55,1-13,2.44-19.6,3.21-3.86.46-5.75,2-6.58,5.82-.56,2.57,0,2.72,2.22,2.33,11.36-2,22.75-4,34.12-5.94,4.86-.84,4.78-.82,5.61,4,.28,1.59.12,2.29-1.65,2.59-13.17,2.22-26.31,4.62-39.48,6.77-6.34,1-10.4-4-8.37-10.16.76-2.29,1.58-4.56,2.53-6.76a2.73,2.73,0,0,0-.34-3c-5.07-7.11-10.16-14.21-15.06-21.43-1.65-2.42-3.5-1.1-5.33-.89-2,.23-1.13,1.86-1.13,2.86-.06,15.46,0,30.93,0,46.4,0,6.13-.16,12.26.08,18.38.4,10,7.72,14.5,16.86,10.49a33.62,33.62,0,0,0,3.21-1.66l36.78-21.13c1.18-.67,2.35-1.36,3.6-2.09-3.51-3.26-4.38-6.12-3-9.27a7.08,7.08,0,0,1,7.32-4.18c3.37.36,5.45,2.59,6.52,7.26,8.73-5,17.29-9.83,25.75-14.81C218,105.71,217.9,96.44,206.72,89.91ZM138.79,140a7.08,7.08,0,1,1,7.05-7.15A7.15,7.15,0,0,1,138.79,140Z"/><path class="cls-2" d="M138.64,135c-1.12-.28-2-.87-1.93-2.19a2,2,0,0,1,4,.06A2,2,0,0,1,138.64,135Z"/></g></svg>