<svg width="256" height="319" viewBox="0 0 256 319" fill="none" xmlns="http://www.w3.org/2000/svg">
<path d="M146.08 66.1647C119.159 70.8414 92.5462 75.4611 65.9421 80.1215C63.0629 80.6258 60.2488 81.4554 58.7929 77.7791C55.7348 69.8491 49.9357 68.5884 42.6564 71.2724C38.4352 72.8178 37.5974 71.2724 37.7764 67.2058C38.0773 58.4462 37.7764 49.6703 37.9309 40.9026C38.3701 21.2362 52.4652 12.2895 69.6509 21.6266C95.2221 35.559 120.297 50.4023 145.567 64.8796C145.722 64.9691 145.763 65.4327 146.08 66.1647Z" fill="#F24A57"/>
<path d="M149.894 74.8674C145.275 88.263 140.883 100.894 136.572 113.582C136.309 114.61 135.73 115.53 134.918 116.212C134.105 116.895 133.1 117.306 132.042 117.388C117.939 119.723 103.86 122.268 89.7484 124.708C88.2356 124.969 86.918 125.522 85.7712 123.399C80.3381 113.509 73.0913 104.822 66.7717 95.5098C62.9409 89.8164 62.8352 89.8164 69.293 88.7184C94.8317 84.2451 120.373 79.7962 145.917 75.3716C146.966 75.1846 148.007 75.1032 149.894 74.8674Z" fill="#F24A57"/>
<path d="M155.685 168.36C155.165 170.556 153.961 172.15 151.619 171.817C149.537 171.508 148.032 170.125 148.365 167.75C148.392 167.301 148.508 166.862 148.708 166.459C148.908 166.056 149.188 165.698 149.529 165.406C149.871 165.113 150.268 164.893 150.697 164.758C151.126 164.623 151.578 164.575 152.025 164.619C154.319 164.651 155.523 166.091 155.685 168.36Z" fill="#F24A57"/>
<path d="M210.764 102.326C195.173 93.2162 179.394 84.4322 163.835 75.2659C160.37 73.2244 159.532 74.3224 158.459 77.5351C154.221 90.2556 149.512 102.83 145.446 115.607C143.331 122.26 139.264 125.571 132.497 126.595C120.818 128.352 109.252 130.955 97.5239 132.289C90.6594 133.102 87.2841 135.892 85.8038 142.659C84.8034 147.246 85.8689 147.539 89.7566 146.823C110.025 143.204 130.318 139.747 150.594 136.25C159.264 134.745 159.126 134.769 160.598 143.334C161.094 146.172 160.818 147.4 157.662 147.962C134.181 151.906 110.757 156.184 87.2597 160.023C75.9706 161.894 68.7482 152.907 72.3594 141.927C73.7095 137.86 75.1654 133.793 76.8734 129.873C77.3158 129.014 77.4932 128.043 77.3832 127.083C77.2731 126.123 76.8806 125.217 76.2553 124.481C67.2273 111.801 58.1423 99.1454 49.4153 86.254C46.4873 81.9352 43.1851 84.2939 39.9237 84.668C36.3694 85.0828 37.9066 87.9864 37.9066 89.7595C37.809 117.342 37.7873 144.923 37.8415 172.5C37.8415 183.423 37.5569 194.362 37.9798 205.269C38.6874 223.162 51.7333 231.125 68.0731 223.976C70.0215 223.086 71.9219 222.096 73.7665 221.007C95.6397 208.466 117.502 195.91 139.354 183.342C141.452 182.138 143.534 180.902 145.779 179.617C139.516 173.793 137.963 168.702 140.411 163.09C141.503 160.612 143.361 158.55 145.713 157.208C148.064 155.865 150.784 155.313 153.473 155.631C159.484 156.274 163.192 160.251 165.096 168.572C180.663 159.625 195.921 151.044 211.016 142.163C230.813 130.508 230.667 113.972 210.764 102.326ZM89.6509 191.638C87.1577 191.647 84.7175 190.918 82.6386 189.541C80.5597 188.165 78.9353 186.204 77.9704 183.905C77.0056 181.606 76.7437 179.072 77.2177 176.625C77.6917 174.177 78.8804 171.924 80.6337 170.152C82.387 168.379 84.6263 167.166 87.0687 166.665C89.5111 166.164 92.0471 166.399 94.3565 167.338C96.6659 168.278 98.6451 169.881 100.044 171.945C101.443 174.008 102.199 176.44 102.217 178.933C102.211 182.277 100.889 185.484 98.5379 187.861C96.1865 190.238 92.9942 191.595 89.6509 191.638Z" fill="#F24A57"/>
<path d="M89.3905 182.723C87.3897 182.227 85.7874 181.186 85.9501 178.819C86.1128 176.453 87.5768 175.216 89.846 175.404C90.2928 175.415 90.7329 175.516 91.1401 175.7C91.5473 175.884 91.9134 176.149 92.2168 176.477C92.5201 176.805 92.7545 177.191 92.9061 177.612C93.0577 178.032 93.1234 178.479 93.0993 178.925C93.0993 181.121 91.8061 182.504 89.3905 182.723Z" fill="#F24A57"/>
<path d="M199.519 308.61C203.094 300.555 206.837 292.556 210.178 284.39C211.457 281.235 213.043 279.639 216.497 280.348C217.254 280.419 218.016 280.419 218.774 280.348C218.729 281.324 218.405 282.267 217.841 283.064C212.959 294.078 207.985 305.044 203.262 316.123C202.329 318.26 201.031 318.251 199.323 318.167C197.615 318.083 196.057 318.568 195.049 316.216C190.186 304.727 185.034 293.35 179.919 281.888C179.763 281.671 179.664 281.417 179.631 281.151C179.599 280.886 179.633 280.616 179.733 280.367C181.207 280.367 182.803 280.479 184.399 280.367C185.995 280.255 186.854 280.871 187.498 282.392C191.035 290.634 194.685 298.828 198.334 307.014C198.586 307.518 198.511 308.33 199.519 308.61Z" fill="#F24A57"/>
<path d="M88.9752 291.828C88.9752 283.97 89.0685 276.102 88.9192 268.243C88.9192 266.124 89.4139 265.322 91.5325 265.658C92.2753 265.765 93.0297 265.765 93.7725 265.658C95.5645 265.396 95.9379 266.18 95.9285 267.87C95.8601 283.867 95.8601 299.867 95.9285 315.871C95.9285 317.738 95.4432 318.447 93.5765 318.195C92.7406 318.078 91.8925 318.078 91.0565 318.195C89.1899 318.456 88.9192 317.616 88.9379 315.964C89.0219 307.919 88.9752 299.883 88.9752 291.828Z" fill="#F24A57"/>
<path d="M30.3898 303.224C29.2698 301.703 29.3911 301.162 31.0991 300.266C37.0351 297.148 39.4058 291.866 39.3031 285.398C39.1911 278.734 36.1858 273.75 30.1098 270.8C27.4127 269.468 24.4559 268.745 21.4485 268.682C15.1671 268.588 8.8858 268.682 2.6138 268.476C0.513804 268.411 -0.0181969 268.952 0.000469735 271.08C0.11247 285.136 0.0658037 299.192 0.0658037 313.258C0.0658037 318.298 0.0658026 318.223 5.04047 318.223C6.74847 318.223 7.32714 317.822 7.2618 316.039C7.11247 312.306 7.2618 308.572 7.18714 304.792C7.18714 303.43 7.58847 303.038 8.93247 303.056C12.9645 303.118 17.0089 303.103 21.0658 303.01C22.2511 303.01 22.6991 303.626 23.2405 304.4C25.1071 307.079 27.3471 309.58 28.8405 312.446C31.3885 317.234 34.8325 319.614 40.7685 317.747C37.3058 312.884 33.9271 307.994 30.3898 303.224ZM23.8565 296.122C18.7885 297.204 13.5898 296.56 8.4658 296.7C7.1498 296.7 7.24314 295.87 7.25247 295.011V285.752C7.25247 282.759 7.25247 279.766 7.25247 276.774C7.25247 275.84 7.08447 274.907 8.59647 274.907C13.5431 275.14 18.5085 274.478 23.4271 275.42C29.0271 276.503 32.0511 279.956 32.1631 285.416C32.2471 291.138 29.4285 294.936 23.8285 296.15L23.8565 296.122Z" fill="#F24A57"/>
<path d="M57.1859 280.955C53.7252 282.044 50.6726 284.15 48.4253 286.998C46.178 289.846 44.8402 293.305 44.5859 296.924C43.9326 305.194 46.6486 312.054 54.2179 315.992C61.7872 319.931 69.2539 319.53 76.2632 314.63C79.8566 312.119 79.7446 311.942 76.8232 308.591L75.2646 306.818C74.6112 307.536 74.1446 308.134 73.5939 308.638C66.9486 314.723 55.4126 312.474 52.2672 304.531C51.5206 302.664 51.3992 301.731 54.0126 301.731C62.3472 301.88 70.6912 301.731 79.0352 301.815C80.4539 301.815 81.1819 301.638 81.2659 299.902C81.9192 286.452 69.9539 276.951 57.1859 280.955ZM72.4646 296.075C69.2912 295.963 66.1086 296.075 62.9259 296.075C59.7432 296.075 56.7472 295.982 53.6672 296.075C51.6419 296.159 51.5206 295.431 52.1366 293.77C52.9816 291.558 54.4827 289.659 56.4385 288.325C58.3942 286.992 60.7111 286.289 63.078 286.31C65.4449 286.332 67.7487 287.076 69.6801 288.445C71.6116 289.813 73.0782 291.74 73.8832 293.966C74.4526 295.543 74.3032 296.15 72.4646 296.075Z" fill="#F24A57"/>
<path d="M244.86 281.692C241.418 280.159 237.595 279.687 233.883 280.337C230.17 280.987 226.736 282.729 224.019 285.342C217.047 292.351 216.786 304.942 223.459 312.24C230.132 319.539 243.162 320.584 250.628 314.518C253.839 311.914 253.736 311.998 251.16 308.768C249.854 307.135 249.247 307.079 247.66 308.619C241.295 314.844 227.612 312.707 225.746 301.824H228.658C236.815 301.824 244.972 301.824 253.13 301.824C254.436 301.824 255.379 301.824 255.482 299.958C255.728 296.202 254.849 292.458 252.957 289.205C251.065 285.951 248.246 283.336 244.86 281.692ZM246.438 296.084C243.358 295.935 240.268 296.084 237.179 296.084C234.09 296.084 230.814 295.982 227.64 296.084C225.774 296.168 225.774 295.44 226.231 293.984C227.011 291.714 228.489 289.75 230.454 288.372C232.419 286.993 234.77 286.273 237.17 286.312C239.522 286.301 241.822 287.011 243.759 288.346C245.696 289.68 247.178 291.577 248.006 293.779C248.547 295.338 248.528 296.196 246.438 296.084Z" fill="#F24A57"/>
<path d="M123.07 280.087C119.014 279.797 114.98 280.896 111.632 283.203C108.284 285.51 105.82 288.887 104.646 292.78C101.846 301.834 105.019 311.027 112.579 315.628C119.887 320.08 130.798 319.026 136.771 313.65C139.916 310.85 136.631 309.842 135.632 308.208C134.186 305.838 133.411 308.115 132.599 308.824C125.683 314.919 113.596 312.072 111.132 303.766C110.694 302.3 110.862 301.759 112.532 301.787C116.844 301.88 121.156 301.787 125.468 301.787C129.78 301.787 134.092 301.731 138.404 301.787C139.823 301.787 140.336 301.432 140.439 299.92C140.641 297.469 140.348 295.003 139.578 292.667C138.808 290.331 137.576 288.174 135.956 286.324C134.335 284.474 132.36 282.968 130.146 281.897C127.932 280.825 125.526 280.21 123.07 280.087ZM131.75 296.066C128.567 295.972 125.384 296.066 122.192 296.066C119 296.066 116.014 295.935 112.934 296.066C110.638 296.196 110.712 295.319 111.366 293.639C112.234 291.433 113.757 289.546 115.73 288.233C117.703 286.919 120.032 286.242 122.402 286.293C124.772 286.344 127.069 287.12 128.984 288.517C130.899 289.914 132.34 291.864 133.112 294.106C133.607 295.618 133.42 296.15 131.75 296.066Z" fill="#F24A57"/>
<path d="M176.037 292.743C175.766 286.014 171.631 281.73 164.977 280.479C159.404 279.408 153.633 280.298 148.643 282.999C144.509 285.164 144.583 285.351 146.945 289.364C147.878 290.979 148.457 290.82 149.819 289.794C151.638 288.381 153.735 287.371 155.973 286.829C158.211 286.286 160.539 286.225 162.802 286.648C166.825 287.339 168.775 289.579 169.279 293.639C169.485 295.3 169.121 295.916 167.273 295.907C162.783 295.907 158.275 295.506 153.814 296.318C148.074 297.363 144.481 301.106 144.173 306.398C143.865 311.69 147.141 316.244 152.759 317.7C158.378 319.156 164.071 318.736 169.849 314.406C168.402 318.326 170.399 318.354 172.649 318.195C173.304 318.134 173.963 318.134 174.618 318.195C175.822 318.316 176.27 317.887 176.251 316.627C176.186 308.666 176.354 300.695 176.037 292.743ZM164.986 311.083C163.472 311.943 161.791 312.468 160.056 312.621C158.322 312.774 156.575 312.552 154.934 311.97C153.772 311.697 152.746 311.019 152.039 310.058C151.333 309.096 150.992 307.914 151.079 306.724C151.182 303.98 152.946 302.524 155.485 302.058C159.657 301.227 163.885 301.703 168.103 301.666C170.269 301.666 168.925 303.532 169.382 304.419C169.354 307.555 167.478 309.58 164.986 311.083Z" fill="#F24A57"/>
</svg>
