<svg width="74" height="90" viewBox="0 0 74 90" fill="none" xmlns="http://www.w3.org/2000/svg">
<path d="M18.4808 65.3823C18.4808 65.3823 14.6515 69.5764 14.1044 79.241C13.5574 88.9057 13.375 89.9998 13.375 89.9998H27.0514L29.6043 83.4351L32.5219 89.9998H45.4689C45.4689 89.9998 46.9277 69.9411 45.4689 69.3941C44.0101 68.847 18.4808 65.3823 18.4808 65.3823Z" fill="#59CD99"/>
<path d="M36.8068 16.0566C40.4324 16.0566 43.3715 13.1175 43.3715 9.4919C43.3715 5.86634 40.4324 2.92725 36.8068 2.92725C33.1813 2.92725 30.2422 5.86634 30.2422 9.4919C30.2422 13.1175 33.1813 16.0566 36.8068 16.0566Z" fill="#FFB8B8"/>
<path d="M30.88 9.94775L29.6035 21.6183L38.5388 22.7124C38.5388 22.7124 38.9035 12.5007 39.0858 12.136C39.2682 11.7713 30.88 9.94775 30.88 9.94775Z" fill="#FFB8B8"/>
<path d="M56.2282 34.7476L60.0576 42.224C60.0576 42.224 65.1634 49.7004 66.4399 55.9003C67.7163 62.1003 68.9928 65.0179 68.9928 65.0179C68.9928 65.0179 75.5575 74.5002 71.9104 76.1413C68.2634 77.7825 65.1634 65.565 65.1634 65.565L55.1341 47.3298L49.2988 37.8475L56.2282 34.7476Z" fill="#FFB8B8"/>
<path d="M19.9396 36.571L18.6631 42.0416L6.62792 57.9062C6.62792 57.9062 -3.03671 65.2003 0.97502 66.8414C4.98675 68.4826 9.91024 60.2768 9.91024 60.2768L24.8631 47.1474L24.1337 36.571H19.9396Z" fill="#FFB8B8"/>
<path d="M29.2398 19.2477C29.2398 19.2477 34.6551 21.518 38.6945 18.7417C38.6945 18.7417 48.5691 20.3418 49.1161 20.8889C49.6632 21.4359 48.5691 37.8475 48.5691 37.8475L46.3809 47.1475C46.3809 47.1475 49.4809 61.3709 44.9221 65.0179L45.8338 69.9414C45.8338 69.9414 25.5928 71.4002 17.5693 66.4767L19.0281 61.5532L22.8575 46.0534L20.487 24.5359C20.487 24.5359 22.3105 19.6124 29.2398 19.2477Z" fill="#F24A57"/>
<path d="M44.4662 21.7094L49.2073 20.98C49.2073 20.98 51.5779 21.3447 53.7661 25.9035C55.9543 30.4623 58.3249 36.4799 58.3249 36.4799L50.1191 40.1269L43.3721 29.5505L44.4662 21.7094Z" fill="#F24A57"/>
<path d="M21.5803 23.624L20.4862 24.5358C20.4862 24.5358 19.0273 29.824 19.0273 33.471V38.3945L25.592 39.1239L21.5803 23.624Z" fill="#F24A57"/>
<path d="M30.2447 11.2734C30.2447 11.2734 29.3524 10.3098 29.4427 9.10343C29.5022 8.41722 29.4583 7.72596 29.3125 7.05278C29.3125 7.05278 29.5918 5.07836 30.0042 3.93389C30.4166 2.78942 30.0689 2.39114 31.8416 1.76634C33.6143 1.14153 32.4858 -1.11792 37.7122 0.683005C37.911 0.883721 38.1648 1.02106 38.4415 1.07768C38.7183 1.13431 39.0056 1.10769 39.2672 1.00117C40.2321 0.647796 40.8136 1.9734 40.8136 1.9734C40.8136 1.9734 41.4155 1.4796 41.7532 1.99298C42.0909 2.50637 43.7243 1.33626 44.3232 5.07111C44.9222 8.80597 42.866 12.1366 42.866 12.1366C42.866 12.1366 42.5775 6.15992 39.1833 6.05157C35.789 5.94322 31.9505 4.65752 31.4745 7.17429C30.9984 9.69106 30.2447 11.2734 30.2447 11.2734Z" fill="#7A4A27"/>
<path d="M69.9948 53.0737H1.43066V77.6912H69.9948V53.0737Z" fill="white"/>
<path d="M25.8336 72.9992C25.8261 73.0007 25.8186 73.0021 25.811 73.0035C25.6311 73.0364 25.4497 73.0652 25.2655 73.0851C25.2035 73.0924 25.1397 73.0979 25.0777 73.1033C25.0139 73.1088 24.9519 73.1143 24.8881 73.1179C24.7841 73.1252 24.6783 73.1289 24.5726 73.1307C24.527 73.1325 24.4796 73.1325 24.434 73.1325H24.4066C24.3501 73.1325 24.2936 73.1325 24.2371 73.1307C24.1878 73.1289 24.1386 73.127 24.0912 73.1252C24.0638 73.1252 24.0365 73.1234 24.0109 73.1216C22.8548 73.0592 21.7278 72.7355 20.7147 72.1748C19.7017 71.6141 18.8289 70.831 18.1621 69.8844C17.4954 68.9378 17.0519 67.8524 16.865 66.7097C16.6782 65.567 16.7529 64.3968 17.0834 63.2872C17.414 62.1775 17.9919 61.1572 18.7736 60.3031C19.5553 59.4489 20.5205 58.7831 21.5966 58.3557C22.6727 57.9284 23.8317 57.7506 24.9864 57.8357C26.1412 57.9208 27.2616 58.2666 28.2634 58.8471C27.1019 59.52 26.1376 60.4864 25.4673 61.6495C24.797 62.8125 24.4441 64.1313 24.4441 65.4737C24.4441 66.8161 24.797 68.1349 25.4673 69.298C26.1376 70.461 27.1019 71.4275 28.2634 72.1004C27.5107 72.5364 26.6889 72.8404 25.8336 72.9992Z" fill="#3F3D56"/>
<path d="M37.3538 71.4676C37.6463 71.7014 37.9559 71.9129 38.2801 72.1004C37.1172 72.7764 35.7959 73.1325 34.4507 73.1325H34.3523C33.1808 73.119 32.028 72.837 30.9826 72.3081C29.9372 71.7791 29.027 71.0174 28.3222 70.0816C27.6174 69.1457 27.1367 68.0606 26.917 66.9098C26.6974 65.759 26.7447 64.5731 27.0553 63.4434C27.3659 62.3138 27.9316 61.2704 28.7087 60.3937C29.4858 59.5169 30.4537 58.8301 31.5379 58.3862C32.6221 57.9422 33.7937 57.7529 34.9626 57.8328C36.1315 57.9127 37.2664 58.2597 38.2801 58.847C37.1983 59.4701 36.2855 60.3486 35.6215 61.4058C34.9576 62.463 34.5626 63.6667 34.4713 64.9118C34.3799 66.1568 34.5948 67.4053 35.0973 68.5481C35.5998 69.6909 36.3745 70.6933 37.3538 71.4676Z" fill="#3F3D56"/>
<path d="M52.1251 65.4737C52.1251 66.9885 51.676 68.4692 50.8344 69.7287C49.9929 70.9882 48.7967 71.9698 47.3973 72.5495C45.9978 73.1292 44.4579 73.2808 42.9722 72.9853C41.4866 72.6898 40.1219 71.9604 39.0508 70.8893C37.9797 69.8182 37.2503 68.4535 36.9548 66.9679C36.6593 65.4822 36.8109 63.9423 37.3906 62.5428C37.9703 61.1434 38.9519 59.9472 40.2114 59.1057C41.4709 58.2641 42.9516 57.8149 44.4664 57.8149C45.4722 57.8148 46.4681 58.0129 47.3974 58.3977C48.3266 58.7826 49.171 59.3467 49.8822 60.0579C50.5934 60.7691 51.1575 61.6135 51.5424 62.5427C51.9272 63.472 52.1252 64.4679 52.1251 65.4737Z" fill="#3F3D56"/>
<path d="M47.5662 71.4913C47.5665 71.838 47.5316 72.1838 47.4622 72.5234C46.5145 72.9253 45.4956 73.1325 44.4662 73.1325C43.4368 73.1325 42.4179 72.9253 41.4702 72.5234C41.4007 72.1838 41.3659 71.838 41.3662 71.4913C41.3662 69.6897 42.2834 68.167 43.5471 67.6583C43.0426 67.4461 42.6271 67.0658 42.371 66.5821C42.115 66.0983 42.0342 65.5409 42.1424 65.0043C42.2507 64.4678 42.5412 63.9853 42.9648 63.6386C43.3884 63.2919 43.9189 63.1025 44.4662 63.1025C45.0135 63.1025 45.544 63.2919 45.9676 63.6386C46.3911 63.9853 46.6817 64.4678 46.7899 65.0043C46.8982 65.5409 46.8174 66.0983 46.5614 66.5821C46.3053 67.0658 45.8898 67.4461 45.3852 67.6583C46.6489 68.167 47.5662 69.6897 47.5662 71.4913Z" fill="#DADADA"/>
<path d="M37.3543 71.4675V71.4912C37.3287 71.921 37.2677 72.3479 37.1719 72.7677C36.2802 73.147 35.3794 73.1196 34.3528 73.1324H34.2543C33.2247 73.1336 32.2056 72.9264 31.2583 72.5233C31.2509 72.4921 31.2454 72.4604 31.2418 72.4285C31.1827 72.1196 31.1534 71.8057 31.1543 71.4912C31.1543 69.6896 32.0716 68.1669 33.3353 67.6582C32.8307 67.446 32.4152 67.0658 32.1591 66.5821C31.9031 66.0984 31.8223 65.541 31.9306 65.0045C32.0388 64.468 32.3294 63.9855 32.753 63.6389C33.1765 63.2923 33.707 63.103 34.2543 63.103C34.4398 63.1025 34.6248 63.1246 34.805 63.1687C34.339 64.6474 34.3333 66.2327 34.7885 67.7147C35.2438 69.1967 36.1385 70.5054 37.3543 71.4675H37.3543Z" fill="#DADADA"/>
<path d="M27.503 71.597C27.4989 71.9082 27.4653 72.2184 27.4027 72.5233C26.7213 72.8132 26.0014 73.0024 25.2655 73.085C25.2035 73.0923 25.1397 73.0977 25.0777 73.1032C25.0139 73.1087 24.9519 73.1141 24.888 73.1178C24.7841 73.1251 24.6783 73.1287 24.5726 73.1306C24.5507 73.1324 24.527 73.1324 24.5051 73.1324H24.4066C24.3501 73.1324 24.2936 73.1324 24.2371 73.1306C24.1878 73.1287 24.1386 73.1269 24.0912 73.1251C24.0638 73.1251 24.0365 73.1233 24.0109 73.1214C23.1156 73.0772 22.2353 72.8747 21.4106 72.5233C21.4091 72.5192 21.4085 72.5149 21.4088 72.5106C21.402 72.4836 21.3971 72.4562 21.3942 72.4285C21.3351 72.1196 21.3057 71.8057 21.3067 71.4912C21.3067 69.6896 22.2239 68.1669 23.4876 67.6582C22.9831 67.446 22.5675 67.0658 22.3115 66.5821C22.0554 66.0984 21.9747 65.541 22.0829 65.0045C22.1912 64.468 22.4817 63.9855 22.9053 63.6389C23.3289 63.2923 23.8593 63.103 24.4066 63.103C24.538 63.1029 24.6692 63.1138 24.7987 63.1359C24.313 64.6522 24.3124 66.2824 24.7972 67.7991C25.2819 69.3157 26.2278 70.6434 27.503 71.597H27.503Z" fill="#DADADA"/>
</svg>
