<svg width="101" height="98" viewBox="0 0 101 98" fill="none" xmlns="http://www.w3.org/2000/svg">
<g filter="url(#filter0_d)">
<g clip-path="url(#clip0)">
<path d="M41.4291 36C41.6106 36.2879 41.8028 36.579 42 36.865L41.5773 37C41.3779 36.7108 41.1837 36.4166 41 36.1254L41.4291 36Z" fill="#E6E6E6"/>
<path d="M46.9236 29.3249C49.3255 25.8453 50.3684 21.6421 49.8631 17.4774C49.3579 13.3128 47.338 9.46244 44.1698 6.62468C41.0015 3.78693 36.8947 2.14965 32.594 2.00977C28.2934 1.86988 24.0836 3.23665 20.7283 5.86222C17.3729 8.48779 15.0941 12.1983 14.3051 16.3209C13.5161 20.4434 14.2691 24.7051 16.4276 28.333C18.5861 31.9609 22.0072 34.7148 26.0704 36.0953C30.1336 37.4759 34.5699 37.3916 38.5748 35.8578C38.8345 36.761 39.3199 37.5873 39.9876 38.2629C40.6553 38.9384 41.4844 39.442 42.4008 39.7286C43.3172 40.0153 44.2922 40.076 45.2386 39.9053C46.185 39.7346 47.0731 39.3379 47.8236 38.7507C48.5741 38.1634 49.1634 37.404 49.5388 36.5404C49.9143 35.6767 50.0641 34.7358 49.975 33.8019C49.8858 32.8679 49.5604 31.9701 49.0279 31.1888C48.4953 30.4075 47.7723 29.7671 46.9236 29.3249Z" fill="#59CD99"/>
<path d="M42 15H21V18H42V15Z" fill="white"/>
<path d="M42 19H21V21H42V19Z" fill="white"/>
<path d="M42 22H21V23H42V22Z" fill="white"/>
<path d="M68.5 27C72.0898 27 75 24.0899 75 20.5C75 16.9101 72.0898 14 68.5 14C64.9101 14 62 16.9101 62 20.5C62 24.0899 64.9101 27 68.5 27Z" fill="#915766"/>
<path d="M59.122 34.8511L57.4147 39.1593L55.5936 33.0772C55.5936 33.0772 55.3659 27.7554 53.7725 28.0088C52.179 28.2622 53.5448 33.3306 53.5448 33.3306C53.5448 33.3306 54.5692 44.6078 56.8456 43.9743C59.122 43.3407 60.6016 39.6661 60.6016 39.6661L61 35.781L59.122 34.8511Z" fill="#FBBEBE"/>
<path d="M66.1629 24.9216C66.1629 24.9216 66.9589 28.7232 65.2343 29.5296C63.5097 30.336 71.8673 30.1056 72 28.8384C72 28.8384 70.1427 24.9216 70.1427 24L66.1629 24.9216Z" fill="#FBBEBE"/>
<path d="M55 58C55 58 55.5932 64.9175 55.8305 66.3738C56.0678 67.8301 56.0678 70.0146 56.0678 70.0146C56.0678 70.0146 55.4746 74.7476 55.7119 79.2379L56.0678 83H58.7966L58.9008 82.4992L59.983 77.2961C59.983 77.2961 61.1695 73.0485 60.6949 69.8932L62 59.699L55 58Z" fill="#FBBEBE"/>
<path d="M63 61C63 61 65.9691 69.9489 66.7113 70.9034C67.4536 71.858 68.4433 74.0057 68.4433 74.0057C68.4433 74.0057 70.5464 79.017 71.6598 79.8523L72.8969 82L75 81.4034L74.3814 76.6307C74.3814 76.6307 74.134 72.6932 71.4124 69.233L70.0515 61.2386L63 61Z" fill="#FBBEBE"/>
<path d="M70.3707 29.3859C70.3707 29.3859 66.7476 30.3441 65.3774 29.9269C65.3774 29.9269 64.0072 29.8813 63.5177 30.0051C63.0282 30.129 59.9689 31.2436 59.9689 31.4913C59.9689 31.739 60.5807 34.216 60.5807 34.216C60.5807 34.216 60.2136 35.7022 60.336 36.6929C60.4584 37.6837 58.1332 40.7799 59.357 41.0276C60.5807 41.2753 61.315 40.7799 61.9269 41.2753C62.5387 41.7707 69.8812 44 69.8812 44L76 31.739C76 31.739 75.021 29.6336 74.1644 29.6336C73.3078 29.6336 71.024 29 71.024 29L70.3707 29.3859Z" fill="#3F3D56"/>
<path d="M60.64 31.2439L60.1901 31C60.1901 31 58.5702 34.4146 59.1102 34.7805C59.6501 35.1463 61 36 61 36L60.64 31.2439Z" fill="#3F3D56"/>
<path d="M60.9478 41L58.9519 44.0435C58.9519 44.0435 55.8334 44.5117 55.5839 48.4917C55.5839 48.4917 53.4633 49.194 52.9643 52.8228C52.9643 52.8228 49.8458 54.6957 51.4674 56.8028C53.0891 58.9098 61.821 63.1239 71.0518 61.7192C71.0518 61.7192 72.7982 58.4416 71.5508 56.2175C71.5508 56.2175 72.8888 53.856 70.5982 52.2274C70.5982 52.2274 72.5487 49.8964 70.5529 47.3211L70.6776 43.5753L60.9478 41Z" fill="#F24A57"/>
<path d="M59.1861 83H55.9304C55.9304 83 55.8141 86.0668 54.5351 86.8029C53.2561 87.5389 50.8143 91.4645 52.6747 91.9552C54.5351 92.4459 60 88.7657 60 87.9069C60 87.0482 59.1861 83 59.1861 83Z" fill="#915766"/>
<path d="M75.6574 80L73 81.1591C73 81.1591 74.9931 87.4696 74.9931 88.3711C74.9931 89.2726 75.3253 90.3029 77.3183 89.9165C79.3114 89.5302 78.9792 87.7272 78.9792 87.7272L75.6574 80Z" fill="#915766"/>
<path d="M67.5 26C69.9853 26 72 24.433 72 22.5C72 20.567 69.9853 19 67.5 19C65.0147 19 63 20.567 63 22.5C63 24.433 65.0147 26 67.5 26Z" fill="#FBBEBE"/>
<path d="M76 35C76 35 74.1176 41.2582 73.8487 41.7588L69.4116 52.3977C69.4116 52.3977 69.9495 57.7797 67.9326 56.9036C65.9158 56.0274 67.7982 51.3964 67.7982 51.3964L70.8907 40.0065L72.6386 35H76Z" fill="#FBBEBE"/>
<path d="M75.2904 30L76.538 30.9714C76.538 30.9714 77.5776 35.7072 76.538 35.5858C75.4983 35.4644 73.1073 36.1929 73.0033 35.9501C72.8993 35.7072 75.2904 30 75.2904 30Z" fill="#3F3D56"/>
<path d="M71.5 17C72.8807 17 74 15.6569 74 14C74 12.3431 72.8807 11 71.5 11C70.1193 11 69 12.3431 69 14C69 15.6569 70.1193 17 71.5 17Z" fill="#915766"/>
<path d="M66.7547 11.5C66.7548 10.882 67.0864 10.286 67.6857 9.82684C68.285 9.36768 69.1094 9.07794 70 9.01352C69.8746 9.00453 69.7487 9.00002 69.6226 9C68.6619 9 67.7404 9.26339 67.061 9.73223C66.3817 10.2011 66 10.837 66 11.5C66 12.163 66.3817 12.7989 67.061 13.2678C67.7404 13.7366 68.6619 14 69.6226 14C69.7487 14 69.8746 13.9955 70 13.9865C69.1094 13.9221 68.285 13.6323 67.6857 13.1732C67.0864 12.714 66.7548 12.118 66.7547 11.5Z" fill="#915766"/>
<path d="M67.5 21C69.9853 21 72 19.6569 72 18C72 16.3431 69.9853 15 67.5 15C65.0147 15 63 16.3431 63 18C63 19.6569 65.0147 21 67.5 21Z" fill="#915766"/>
<path d="M40.361 66.0987H5.64293C5.47247 66.0985 5.30906 66.0307 5.18853 65.9101C5.068 65.7896 5.0002 65.6262 5 65.4557V49.6429C5.0002 49.4725 5.068 49.3091 5.18853 49.1885C5.30906 49.068 5.47247 49.0002 5.64293 49H40.361C40.5314 49.0002 40.6948 49.068 40.8153 49.1885C40.9359 49.3091 41.0037 49.4725 41.0039 49.6429V65.4557C41.0037 65.6262 40.9359 65.7896 40.8153 65.9101C40.6948 66.0307 40.5314 66.0985 40.361 66.0987ZM5.64293 49.2572C5.54065 49.2573 5.4426 49.298 5.37028 49.3703C5.29796 49.4426 5.25728 49.5407 5.25717 49.6429V65.4557C5.25728 65.558 5.29796 65.6561 5.37028 65.7284C5.4426 65.8007 5.54065 65.8414 5.64293 65.8415H40.361C40.4632 65.8414 40.5613 65.8007 40.6336 65.7284C40.7059 65.6561 40.7466 65.558 40.7467 65.4557V49.6429C40.7466 49.5407 40.7059 49.4426 40.6336 49.3703C40.5613 49.298 40.4632 49.2573 40.361 49.2572H5.64293Z" fill="#F24A57"/>
<path d="M10.1436 56.6491C11.635 56.6491 12.8439 55.4401 12.8439 53.9488C12.8439 52.4575 11.635 51.2485 10.1436 51.2485C8.65232 51.2485 7.44336 52.4575 7.44336 53.9488C7.44336 55.4401 8.65232 56.6491 10.1436 56.6491Z" fill="#59CD99"/>
<path d="M16.3802 52.1487C16.2609 52.1487 16.1464 52.1961 16.062 52.2805C15.9776 52.3649 15.9302 52.4794 15.9302 52.5987C15.9302 52.7181 15.9776 52.8326 16.062 52.917C16.1464 53.0014 16.2609 53.0488 16.3802 53.0488H37.5967C37.7161 53.0488 37.8306 53.0014 37.915 52.917C37.9994 52.8326 38.0468 52.7181 38.0468 52.5987C38.0468 52.4794 37.9994 52.3649 37.915 52.2805C37.8306 52.1961 37.7161 52.1487 37.5967 52.1487H16.3802Z" fill="#E6E6E6"/>
<path d="M16.3802 54.8489C16.2609 54.8489 16.1464 54.8963 16.062 54.9807C15.9776 55.0651 15.9302 55.1796 15.9302 55.2989C15.9302 55.4183 15.9776 55.5327 16.062 55.6171C16.1464 55.7015 16.2609 55.7489 16.3802 55.7489H25.5097C25.6291 55.7489 25.7436 55.7015 25.828 55.6171C25.9124 55.5327 25.9598 55.4183 25.9598 55.2989C25.9598 55.1796 25.9124 55.0651 25.828 54.9807C25.7436 54.8963 25.6291 54.8489 25.5097 54.8489H16.3802Z" fill="#E6E6E6"/>
<path d="M8.07259 59.166C7.73025 59.166 7.45166 59.3679 7.45166 59.616C7.45166 59.8642 7.73025 60.0661 8.07259 60.0661H37.3448C37.6872 60.0661 37.9657 59.8642 37.9657 59.616C37.9657 59.3679 37.6872 59.166 37.3448 59.166H8.07259Z" fill="#E6E6E6"/>
<path d="M8.07259 61.8662C7.73025 61.8662 7.45166 62.0681 7.45166 62.3162C7.45166 62.5644 7.73025 62.7663 8.07259 62.7663H37.3448C37.6872 62.7663 37.9657 62.5644 37.9657 62.3162C37.9657 62.0681 37.6872 61.8662 37.3448 61.8662H8.07259Z" fill="#E6E6E6"/>
</g>
</g>
<defs>
<filter id="filter0_d" x="-4" y="0" width="108.594" height="98" filterUnits="userSpaceOnUse" color-interpolation-filters="sRGB">
<feFlood flood-opacity="0" result="BackgroundImageFix"/>
<feColorMatrix in="SourceAlpha" type="matrix" values="0 0 0 0 0 0 0 0 0 0 0 0 0 0 0 0 0 0 127 0"/>
<feOffset dy="4"/>
<feGaussianBlur stdDeviation="2"/>
<feColorMatrix type="matrix" values="0 0 0 0 0 0 0 0 0 0 0 0 0 0 0 0 0 0 0.25 0"/>
<feBlend mode="normal" in2="BackgroundImageFix" result="effect1_dropShadow"/>
<feBlend mode="normal" in="SourceGraphic" in2="effect1_dropShadow" result="shape"/>
</filter>
<clipPath id="clip0">
<rect width="100.594" height="90" fill="white"/>
</clipPath>
</defs>
</svg>
